<svg width="47" height="33" viewBox="0 0 47 33" fill="none" xmlns="http://www.w3.org/2000/svg">
<path d="M4.74414 1.86621H42.7441V-0.133789H4.74414V1.86621ZM45.7441 4.86621V28.8662H47.7441V4.86621H45.7441ZM42.7441 31.8662H4.74414V33.8662H42.7441V31.8662ZM1.74414 28.8662V4.86621H-0.255859V28.8662H1.74414ZM4.74414 31.8662C3.08729 31.8662 1.74414 30.5231 1.74414 28.8662H-0.255859C-0.255859 31.6276 1.98272 33.8662 4.74414 33.8662V31.8662ZM45.7441 28.8662C45.7441 30.5231 44.401 31.8662 42.7441 31.8662V33.8662C45.5056 33.8662 47.7441 31.6276 47.7441 28.8662H45.7441ZM42.7441 1.86621C44.401 1.86621 45.7441 3.20936 45.7441 4.86621H47.7441C47.7441 2.10479 45.5056 -0.133789 42.7441 -0.133789V1.86621ZM4.74414 -0.133789C1.98272 -0.133789 -0.255859 2.10479 -0.255859 4.86621H1.74414C1.74414 3.20936 3.08729 1.86621 4.74414 1.86621V-0.133789Z" fill="#F3F4F6"/>
<path fill-rule="evenodd" clip-rule="evenodd" d="M9.85281 12.2368L5.61133 21.8991H10.689L11.3185 20.3586H12.7573L13.3868 21.8991H18.9759V20.7233L19.4739 21.8991H22.365L22.863 20.6985V21.8991H34.4867L35.9001 20.3986L37.2236 21.8991L43.1938 21.9116L38.9389 17.095L43.1938 12.2368H37.3162L35.9403 13.7097L34.6585 12.2368H22.0134L20.9276 14.7307L19.8163 12.2368H14.7492V13.3726L14.1856 12.2368H9.85281ZM10.8358 13.6089H13.3108L16.1242 20.161V13.6089H18.8356L21.0086 18.3067L23.0112 13.6089H25.7091V20.5422H24.0675L24.0541 15.1093L21.6609 20.5422H20.1924L17.7858 15.1093V20.5422H14.4087L13.7685 18.9879H10.3096L9.67071 20.5409H7.86133L10.8358 13.6089ZM33.8858 13.6089H27.2109V20.5381H33.7825L35.9006 18.2417L37.9421 20.5381H40.0763L36.9744 17.0936L40.0763 13.6089H38.0347L35.9274 15.879L33.8858 13.6089ZM12.039 14.782L10.8994 17.551H13.1772L12.039 14.782ZM28.8584 16.3101V15.0444V15.0432H33.0233L34.8407 17.0674L32.9428 19.1026H28.8584V17.7208H32.4998V16.3101H28.8584Z" fill="#1F72CD"/>
</svg>
