<svg width="47" height="33" viewBox="0 0 47 33" fill="none" xmlns="http://www.w3.org/2000/svg">
<path d="M0.744141 6.26343C0.744141 2.94972 3.43043 0.263428 6.74414 0.263428H40.7441C44.0578 0.263428 46.7441 2.94972 46.7441 6.26343V26.2634C46.7441 29.5771 44.0578 32.2634 40.7441 32.2634H6.74414C3.43043 32.2634 0.744141 29.5771 0.744141 26.2634V6.26343Z" fill="white"/>
<path fill-rule="evenodd" clip-rule="evenodd" d="M23.6494 22.7026C22.0707 24.0333 20.0228 24.8366 17.7851 24.8366C12.7919 24.8366 8.74414 20.837 8.74414 15.9033C8.74414 10.9696 12.7919 6.96997 17.7851 6.96997C20.0228 6.96997 22.0707 7.7733 23.6494 9.10403C25.2282 7.7733 27.2761 6.96997 29.5138 6.96997C34.507 6.96997 38.5547 10.9696 38.5547 15.9033C38.5547 20.837 34.507 24.8366 29.5138 24.8366C27.2761 24.8366 25.2282 24.0333 23.6494 22.7026Z" fill="#ED0006"/>
<path fill-rule="evenodd" clip-rule="evenodd" d="M23.6494 22.7026C25.5933 21.064 26.826 18.6259 26.826 15.9033C26.826 13.1807 25.5933 10.7426 23.6494 9.10402C25.2281 7.7733 27.276 6.96997 29.5138 6.96997C34.507 6.96997 38.5547 10.9696 38.5547 15.9033C38.5547 20.837 34.507 24.8366 29.5138 24.8366C27.276 24.8366 25.2281 24.0333 23.6494 22.7026Z" fill="#F9A000"/>
<path fill-rule="evenodd" clip-rule="evenodd" d="M23.6494 22.7025C25.5933 21.064 26.8259 18.6258 26.8259 15.9033C26.8259 13.1807 25.5933 10.7425 23.6494 9.104C21.7055 10.7425 20.4729 13.1807 20.4729 15.9033C20.4729 18.6258 21.7055 21.064 23.6494 22.7025Z" fill="#FF5E00"/>
<path d="M6.74414 1.26343H40.7441V-0.736572H6.74414V1.26343ZM45.7441 6.26343V26.2634H47.7441V6.26343H45.7441ZM40.7441 31.2634H6.74414V33.2634H40.7441V31.2634ZM1.74414 26.2634V6.26343H-0.255859V26.2634H1.74414ZM6.74414 31.2634C3.98272 31.2634 1.74414 29.0249 1.74414 26.2634H-0.255859C-0.255859 30.1294 2.87815 33.2634 6.74414 33.2634V31.2634ZM45.7441 26.2634C45.7441 29.0249 43.5056 31.2634 40.7441 31.2634V33.2634C44.6101 33.2634 47.7441 30.1294 47.7441 26.2634H45.7441ZM40.7441 1.26343C43.5056 1.26343 45.7441 3.502 45.7441 6.26343H47.7441C47.7441 2.39743 44.6101 -0.736572 40.7441 -0.736572V1.26343ZM6.74414 -0.736572C2.87815 -0.736572 -0.255859 2.39743 -0.255859 6.26343H1.74414C1.74414 3.502 3.98272 1.26343 6.74414 1.26343V-0.736572Z" fill="#F3F4F6"/>
</svg>
