<svg width="47" height="33" viewBox="0 0 47 33" fill="none" xmlns="http://www.w3.org/2000/svg">
<path d="M0.744141 4.26343C0.744141 2.05429 2.535 0.263428 4.74414 0.263428H42.7441C44.9533 0.263428 46.7441 2.05429 46.7441 4.26343V28.2634C46.7441 30.4726 44.9533 32.2634 42.7441 32.2634H4.74414C2.535 32.2634 0.744141 30.4726 0.744141 28.2634V4.26343Z" fill="white"/>
<path fill-rule="evenodd" clip-rule="evenodd" d="M20.2297 24.8611L20.524 22.9289L19.8684 22.9131H16.7378L18.9134 8.65494C18.9202 8.61177 18.9421 8.57169 18.9741 8.54318C19.0063 8.51466 19.0473 8.49902 19.0901 8.49902H24.3688C26.1213 8.49902 27.3307 8.87587 27.962 9.61979C28.258 9.96878 28.4466 10.3336 28.5378 10.7349C28.6335 11.156 28.6351 11.6591 28.5418 12.2729L28.535 12.3175V12.7108L28.831 12.8842C29.0803 13.0209 29.2784 13.1773 29.4304 13.3563C29.6835 13.6548 29.8473 14.0341 29.9165 14.4836C29.9881 14.946 29.9644 15.4964 29.8473 16.1194C29.7122 16.836 29.4939 17.4601 29.199 17.9707C28.9278 18.4413 28.5823 18.8316 28.172 19.134C27.7803 19.4214 27.3149 19.6396 26.7888 19.7792C26.2788 19.9164 25.6975 19.9857 25.0598 19.9857H24.6491C24.3554 19.9857 24.0701 20.095 23.8461 20.291C23.6214 20.491 23.473 20.7644 23.4274 21.0634L23.3963 21.2374L22.8763 24.6431L22.8528 24.768C22.8465 24.8076 22.8358 24.8273 22.82 24.8407C22.806 24.8529 22.7858 24.8611 22.7661 24.8611H20.2297Z" fill="#28356A"/>
<path fill-rule="evenodd" clip-rule="evenodd" d="M29.1117 12.3628C29.0961 12.4669 29.0779 12.5733 29.0578 12.6826C28.3617 16.3768 25.98 17.653 22.9383 17.653H21.3896C21.0176 17.653 20.704 17.9321 20.6462 18.3114L19.6286 24.9824C19.591 25.2315 19.7767 25.4559 20.0197 25.4559H22.7666C23.0918 25.4559 23.3682 25.2116 23.4194 24.8801L23.4464 24.7359L23.9635 21.3436L23.9968 21.1575C24.0474 20.8249 24.3244 20.5805 24.6496 20.5805H25.0604C27.7217 20.5805 29.8051 19.4638 30.414 16.232C30.6683 14.882 30.5367 13.7547 29.8636 12.9619C29.6599 12.7229 29.4072 12.5244 29.1117 12.3628Z" fill="#298FC2"/>
<path fill-rule="evenodd" clip-rule="evenodd" d="M28.383 12.0629C28.2766 12.0308 28.1669 12.0018 28.0544 11.9756C27.9412 11.95 27.8253 11.9274 27.706 11.9075C27.2884 11.8378 26.8308 11.8047 26.3407 11.8047H22.2034C22.1014 11.8047 22.0046 11.8285 21.918 11.8715C21.7271 11.9663 21.5854 12.153 21.5511 12.3816L20.6709 18.1437L20.6456 18.3116C20.7035 17.9323 21.017 17.6532 21.389 17.6532H22.9378C25.9794 17.6532 28.3611 16.3764 29.0572 12.6829C29.078 12.5735 29.0955 12.4671 29.1111 12.363C28.9351 12.2664 28.7443 12.1838 28.5389 12.1134C28.4882 12.096 28.4358 12.0792 28.383 12.0629Z" fill="#22284F"/>
<path fill-rule="evenodd" clip-rule="evenodd" d="M21.5514 12.3815C21.5857 12.1529 21.7274 11.9662 21.9183 11.872C22.0055 11.8289 22.1017 11.8051 22.2036 11.8051H26.341C26.8311 11.8051 27.2887 11.8383 27.7063 11.908C27.8256 11.9278 27.9415 11.9506 28.0546 11.9761C28.1672 12.0022 28.2769 12.0314 28.3833 12.0633C28.4361 12.0796 28.4885 12.0966 28.5397 12.1133C28.7451 12.1837 28.936 12.267 29.112 12.3629C29.3192 10.9978 29.1103 10.0683 28.3962 9.22661C27.6089 8.29988 26.188 7.90332 24.3697 7.90332H19.0909C18.7195 7.90332 18.4027 8.18241 18.3453 8.56236L16.1466 22.9672C16.1033 23.2521 16.3159 23.5092 16.594 23.5092H19.8529L21.5514 12.3815Z" fill="#28356A"/>
<path d="M4.74414 1.26343H42.7441V-0.736572H4.74414V1.26343ZM45.7441 4.26343V28.2634H47.7441V4.26343H45.7441ZM42.7441 31.2634H4.74414V33.2634H42.7441V31.2634ZM1.74414 28.2634V4.26343H-0.255859V28.2634H1.74414ZM4.74414 31.2634C3.08729 31.2634 1.74414 29.9203 1.74414 28.2634H-0.255859C-0.255859 31.0249 1.98272 33.2634 4.74414 33.2634V31.2634ZM45.7441 28.2634C45.7441 29.9203 44.401 31.2634 42.7441 31.2634V33.2634C45.5056 33.2634 47.7441 31.0249 47.7441 28.2634H45.7441ZM42.7441 1.26343C44.401 1.26343 45.7441 2.60657 45.7441 4.26343H47.7441C47.7441 1.502 45.5056 -0.736572 42.7441 -0.736572V1.26343ZM4.74414 -0.736572C1.98272 -0.736572 -0.255859 1.502 -0.255859 4.26343H1.74414C1.74414 2.60657 3.08729 1.26343 4.74414 1.26343V-0.736572Z" fill="#F3F4F6"/>
</svg>
