<svg width="46" height="33" viewBox="0 0 46 33" fill="none" xmlns="http://www.w3.org/2000/svg">
<rect x="0.5" y="1.27173" width="45" height="31" rx="3.5" fill="white"/>
<path fill-rule="evenodd" clip-rule="evenodd" d="M33.16 16.6851C33.16 22.5283 28.4232 27.2651 22.58 27.2651C16.7368 27.2651 12 22.5283 12 16.6851C12 10.8419 16.7368 6.1051 22.58 6.1051C28.4232 6.1051 33.16 10.8419 33.16 16.6851ZM25.1218 12.7543C26.5935 13.2596 27.6701 14.0164 27.4589 15.4247C27.3055 16.456 26.7317 16.9548 25.9692 17.1294C27.0153 17.6718 27.3717 18.7013 27.0405 19.9461C26.4116 21.7374 24.9166 21.8882 22.9282 21.5138L22.4454 23.4394L21.2798 23.1497L21.756 21.2499C21.4538 21.1751 21.145 21.0951 20.8269 21.0098L20.3487 22.9188L19.1845 22.6291L19.6666 20.6995L17.3189 20.1095L17.8981 18.7798C17.8981 18.7798 18.7574 19.0067 18.7455 18.9902C19.0756 19.0716 19.2223 18.8572 19.2801 18.715L20.5884 13.4885C20.6031 13.2418 20.5174 12.9309 20.0452 12.8131C20.0631 12.8006 19.1984 12.6034 19.1984 12.6034L19.5086 11.3631L21.8596 11.9433L22.3378 10.0355L23.5027 10.3252L23.0344 12.1953C23.3479 12.2661 23.6627 12.3382 23.9689 12.4142L24.4338 10.5561L25.5993 10.8458L25.1218 12.7543ZM22.3329 15.9366C23.1269 16.1471 24.8546 16.6052 25.1557 15.4042C25.4629 14.1755 23.7844 13.8044 22.9626 13.6227C22.8695 13.6021 22.7873 13.5839 22.7203 13.5672L22.1399 15.8865C22.1952 15.9001 22.2601 15.9173 22.3329 15.9366ZM21.4333 19.6707C22.3843 19.9212 24.4641 20.469 24.7951 19.1456C25.1338 17.7926 23.1173 17.3419 22.1334 17.122L22.1333 17.122L22.1332 17.1219C22.0233 17.0974 21.9264 17.0757 21.847 17.056L21.2067 19.612C21.2716 19.6281 21.3476 19.6481 21.4327 19.6705L21.4333 19.6706L21.4333 19.6707Z" fill="#F7931A"/>
<rect x="0.5" y="1.27173" width="45" height="31" rx="3.5" stroke="#F5F5F5"/>
</svg>
