<svg width="47" height="33" viewBox="0 0 47 33" fill="none" xmlns="http://www.w3.org/2000/svg">
<path d="M0.744141 4.90356C0.744141 2.69443 2.535 0.903564 4.74414 0.903564H42.7441C44.9533 0.903564 46.7441 2.69443 46.7441 4.90356V28.9036C46.7441 31.1127 44.9533 32.9036 42.7441 32.9036H4.74414C2.535 32.9036 0.744141 31.1127 0.744141 28.9036V4.90356Z" fill="white"/>
<path d="M25.7441 31.9036L44.7441 26.1536V28.9036C44.7441 30.5604 43.401 31.9036 41.7441 31.9036H25.7441Z" fill="#FD6020"/>
<path fill-rule="evenodd" clip-rule="evenodd" d="M39.9357 13.0514C41.3294 13.0514 42.096 13.6961 42.096 14.9139C42.1657 15.8452 41.5385 16.6331 40.7023 16.7764L42.5838 19.4269H41.1204L39.5176 16.8481H39.3782V19.4269H38.1936V13.0514H39.9357ZM39.3782 15.9885H39.7266C40.4932 15.9885 40.8416 15.6303 40.8416 14.9855C40.8416 14.4125 40.4932 14.0543 39.7266 14.0543H39.3782V15.9885ZM34.0821 19.4269H37.427V18.3524H35.2667V16.6331H37.3573V15.5586H35.2667V14.1259H37.427V13.0514H34.0821V19.4269ZM30.5977 17.3495L28.995 13.0514H27.7406L30.319 19.5702H30.9462L33.5246 13.0514H32.2702L30.5977 17.3495ZM16.4514 16.275C16.4514 18.0659 17.8452 19.5702 19.5873 19.5702C20.1448 19.5702 20.6326 19.427 21.1204 19.2121V17.7793C20.772 18.2092 20.2842 18.4957 19.7267 18.4957C18.6117 18.4957 17.7058 17.6361 17.7058 16.4899V16.3466C17.6361 15.2004 18.542 14.1975 19.657 14.1259C20.2145 14.1259 20.772 14.4124 21.1204 14.8423V13.4095C20.7023 13.123 20.1448 13.0514 19.657 13.0514C17.8452 12.9081 16.4514 14.4124 16.4514 16.275ZM14.2912 15.487C13.5943 15.2004 13.3852 15.0572 13.3852 14.699C13.4549 14.2692 13.8034 13.911 14.2215 13.9826C14.5699 13.9826 14.9183 14.1975 15.1971 14.4841L15.8243 13.6244C15.3365 13.1946 14.7093 12.9081 14.0821 12.9081C13.1065 12.8365 12.2703 13.6244 12.2006 14.6274V14.699C12.2006 15.5586 12.549 16.0601 13.664 16.4183C13.9427 16.4899 14.2215 16.6332 14.5002 16.7764C14.7093 16.9197 14.8487 17.1346 14.8487 17.4212C14.8487 17.9226 14.4305 18.3524 14.0124 18.3524H13.9427C13.3852 18.3524 12.8974 17.9942 12.6884 17.4928L11.9218 18.2808C12.3399 19.0688 13.1762 19.4986 14.0124 19.4986C15.1274 19.5702 16.0333 18.7106 16.103 17.5644V17.3495C16.0333 16.4899 15.6849 16.0601 14.2912 15.487ZM10.2494 19.4269H11.434V13.0514H10.2494V19.4269ZM4.74414 13.0514H6.4863H6.83473C8.5072 13.123 9.83124 14.5557 9.76155 16.275C9.76155 17.2063 9.34344 18.0659 8.64657 18.7106C8.0194 19.2121 7.25285 19.4986 6.4863 19.427H4.74414V13.0514ZM6.27724 18.3524C6.83473 18.424 7.4619 18.2091 7.88002 17.851C8.29814 17.4211 8.5072 16.8481 8.5072 16.2033C8.5072 15.6302 8.29814 15.0572 7.88002 14.6273C7.4619 14.2692 6.83473 14.0543 6.27724 14.1259H5.9288V18.3524H6.27724Z" fill="black"/>
<path fill-rule="evenodd" clip-rule="evenodd" d="M24.6744 12.9036C22.9323 12.9036 21.4689 14.3363 21.4689 16.1988C21.4689 17.9897 22.8626 19.4941 24.6744 19.5657C26.4863 19.6373 27.88 18.133 27.9497 16.2705C27.88 14.4079 26.4863 12.9036 24.6744 12.9036V12.9036Z" fill="#FD6020"/>
<path d="M4.74414 1.90356H42.7441V-0.0964355H4.74414V1.90356ZM45.7441 4.90356V28.9036H47.7441V4.90356H45.7441ZM42.7441 31.9036H4.74414V33.9036H42.7441V31.9036ZM1.74414 28.9036V4.90356H-0.255859V28.9036H1.74414ZM4.74414 31.9036C3.08729 31.9036 1.74414 30.5604 1.74414 28.9036H-0.255859C-0.255859 31.665 1.98272 33.9036 4.74414 33.9036V31.9036ZM45.7441 28.9036C45.7441 30.5604 44.401 31.9036 42.7441 31.9036V33.9036C45.5056 33.9036 47.7441 31.665 47.7441 28.9036H45.7441ZM42.7441 1.90356C44.401 1.90356 45.7441 3.24671 45.7441 4.90356H47.7441C47.7441 2.14214 45.5056 -0.0964355 42.7441 -0.0964355V1.90356ZM4.74414 -0.0964355C1.98272 -0.0964355 -0.255859 2.14214 -0.255859 4.90356H1.74414C1.74414 3.24671 3.08729 1.90356 4.74414 1.90356V-0.0964355Z" fill="#F3F4F6"/>
</svg>
