<svg width="47" height="33" viewBox="0 0 47 33" fill="none" xmlns="http://www.w3.org/2000/svg">
<path d="M0.744141 6.90356C0.744141 3.58986 3.43043 0.903564 6.74414 0.903564H40.7441C44.0578 0.903564 46.7441 3.58986 46.7441 6.90356V26.9036C46.7441 30.2173 44.0578 32.9036 40.7441 32.9036H6.74414C3.43043 32.9036 0.744141 30.2173 0.744141 26.9036V6.90356Z" fill="white"/>
<path fill-rule="evenodd" clip-rule="evenodd" d="M15.0778 22.0479H12.3315L10.2721 13.9601C10.1744 13.5881 9.96681 13.2592 9.66151 13.1042C8.89961 12.7146 8.06005 12.4046 7.14417 12.2482V11.9368H11.5683C12.1789 11.9368 12.6368 12.4046 12.7131 12.9478L13.7817 18.7818L16.5266 11.9368H19.1966L15.0778 22.0479ZM20.7231 22.0479H18.1295L20.2652 11.9368H22.8589L20.7231 22.0479ZM26.2144 14.7379C26.2908 14.1933 26.7487 13.8819 27.283 13.8819C28.1225 13.8038 29.0371 13.9601 29.8003 14.3483L30.2583 12.1714C29.495 11.86 28.6555 11.7036 27.8936 11.7036C25.3762 11.7036 23.5444 13.1042 23.5444 15.0479C23.5444 16.5267 24.8419 17.3031 25.7578 17.7708C26.7487 18.2372 27.1303 18.5486 27.054 19.015C27.054 19.7146 26.2908 20.026 25.5289 20.026C24.613 20.026 23.6971 19.7928 22.8589 19.4032L22.4009 21.5816C23.3168 21.9698 24.3077 22.1261 25.2236 22.1261C28.0462 22.203 29.8003 20.8038 29.8003 18.7036C29.8003 16.0589 26.2144 15.9039 26.2144 14.7379ZM38.8775 22.0479L36.8181 11.9368H34.606C34.1481 11.9368 33.6901 12.2482 33.5375 12.7146L29.724 22.0479H32.394L32.9269 20.5706H36.2075L36.5128 22.0479H38.8775ZM34.9877 14.6597L35.7496 18.4704H33.6138L34.9877 14.6597Z" fill="#172B85"/>
<path d="M6.74414 1.90356H40.7441V-0.0964355H6.74414V1.90356ZM45.7441 6.90356V26.9036H47.7441V6.90356H45.7441ZM40.7441 31.9036H6.74414V33.9036H40.7441V31.9036ZM1.74414 26.9036V6.90356H-0.255859V26.9036H1.74414ZM6.74414 31.9036C3.98272 31.9036 1.74414 29.665 1.74414 26.9036H-0.255859C-0.255859 30.7696 2.87815 33.9036 6.74414 33.9036V31.9036ZM45.7441 26.9036C45.7441 29.665 43.5056 31.9036 40.7441 31.9036V33.9036C44.6101 33.9036 47.7441 30.7696 47.7441 26.9036H45.7441ZM40.7441 1.90356C43.5056 1.90356 45.7441 4.14214 45.7441 6.90356H47.7441C47.7441 3.03757 44.6101 -0.0964355 40.7441 -0.0964355V1.90356ZM6.74414 -0.0964355C2.87815 -0.0964355 -0.255859 3.03757 -0.255859 6.90356H1.74414C1.74414 4.14214 3.98272 1.90356 6.74414 1.90356V-0.0964355Z" fill="#F3F4F6"/>
</svg>
