<svg width="47" height="33" viewBox="0 0 47 33" fill="none" xmlns="http://www.w3.org/2000/svg">
<path d="M0.744141 4.0835C0.744141 1.87436 2.535 0.0834961 4.74414 0.0834961H42.7441C44.9533 0.0834961 46.7441 1.87436 46.7441 4.0835V28.0835C46.7441 30.2926 44.9533 32.0835 42.7441 32.0835H4.74414C2.535 32.0835 0.744141 30.2926 0.744141 28.0835V4.0835Z" fill="white"/>
<path d="M4.74414 1.0835H42.7441V-0.916504H4.74414V1.0835ZM45.7441 4.0835V28.0835H47.7441V4.0835H45.7441ZM42.7441 31.0835H4.74414V33.0835H42.7441V31.0835ZM1.74414 28.0835V4.0835H-0.255859V28.0835H1.74414ZM4.74414 31.0835C3.08729 31.0835 1.74414 29.7404 1.74414 28.0835H-0.255859C-0.255859 30.8449 1.98272 33.0835 4.74414 33.0835V31.0835ZM45.7441 28.0835C45.7441 29.7404 44.401 31.0835 42.7441 31.0835V33.0835C45.5056 33.0835 47.7441 30.8449 47.7441 28.0835H45.7441ZM42.7441 1.0835C44.401 1.0835 45.7441 2.42664 45.7441 4.0835H47.7441C47.7441 1.32207 45.5056 -0.916504 42.7441 -0.916504V1.0835ZM4.74414 -0.916504C1.98272 -0.916504 -0.255859 1.32207 -0.255859 4.0835H1.74414C1.74414 2.42664 3.08729 1.0835 4.74414 1.0835V-0.916504Z" fill="#F3F4F6"/>
<path d="M9.76753 11.2024L6.80402 11.1751L6.80401 13.1412H11.7154L6.61133 19.6836V21.3474H9.76753V23.2637H11.6613V21.3474H14.8806C14.9076 21.2707 14.9171 21.064 14.7458 20.8747C14.4617 20.559 14.2358 20.2292 14.0284 19.8144C13.9337 19.6295 13.8618 19.4081 13.8348 19.3901C13.2008 19.361 9.55365 19.3685 9.55561 19.3455L14.6642 12.763V11.2024H11.6613V9.26361H9.76753V11.2024Z" fill="#7B2CD3"/>
<path d="M23.4434 10.2871C23.3983 10.3051 23.3848 11.3016 23.3848 15.0755C23.3848 20.175 23.3803 20.0894 23.6057 20.5267C23.8086 20.919 24.3046 21.2707 24.8592 21.415C25.1658 21.4961 26.0676 21.5052 26.4147 21.433C26.8611 21.3383 26.9468 21.2031 26.7709 20.8559C26.6582 20.6395 26.5094 20.166 26.4734 19.9045C26.4238 19.5934 26.3606 19.5438 25.9819 19.5528C25.8015 19.5573 25.6302 19.5438 25.5986 19.5258C25.4138 19.4085 25.4138 19.377 25.4138 14.8095C25.4138 11.8742 25.4002 10.3998 25.3687 10.3412C25.3236 10.26 25.265 10.2555 24.4083 10.26C23.9078 10.26 23.4704 10.2735 23.4434 10.2871Z" fill="#7B2CD3"/>
<path d="M27.5775 10.3006C27.5189 10.3366 27.5099 10.9138 27.5099 15.0439C27.5099 19.4942 27.5144 19.7647 27.5956 20.0758C27.7489 20.689 28.096 21.0633 28.7543 21.3383C29.0068 21.442 29.1196 21.46 29.6291 21.4736C30.3099 21.4916 30.6571 21.442 31.0043 21.2662C31.3469 21.0993 31.356 20.9821 31.0629 20.5538C30.9457 20.3824 30.7653 20.0893 30.6661 19.9045L30.4857 19.5663L30.1566 19.5618C29.7463 19.5528 29.7057 19.5348 29.6291 19.3409C29.5704 19.2101 29.5614 18.5383 29.5614 14.8095C29.5614 11.8742 29.5479 10.3998 29.5163 10.3412C29.4712 10.26 29.4126 10.2555 28.5559 10.2555C28.0555 10.2555 27.6136 10.278 27.5775 10.3006Z" fill="#7B2CD3"/>
<path d="M39.5709 11.27C39.2057 11.4368 39.0163 11.7254 39.0118 12.1267C39.0073 12.4693 39.1471 12.7308 39.4311 12.9157C39.7828 13.1547 40.3465 13.087 40.6395 12.7714C41.0138 12.3701 40.9371 11.6758 40.4772 11.3647C40.2382 11.2023 39.8189 11.1618 39.5709 11.27ZM40.2923 11.4368C40.8018 11.6938 40.8785 12.3521 40.4456 12.7354C40.2608 12.8977 40.13 12.9337 39.846 12.9067C39.0614 12.83 38.9081 11.7299 39.6386 11.4007C39.8369 11.3106 40.0669 11.3241 40.2923 11.4368Z" fill="#7B2CD3"/>
<path d="M39.6032 11.6399C39.5716 11.694 39.5671 12.5326 39.5987 12.6183C39.6122 12.6589 39.6528 12.6904 39.6889 12.6904C39.734 12.6904 39.752 12.6273 39.752 12.465C39.752 12.2621 39.761 12.2395 39.8557 12.2395C39.9278 12.2395 39.991 12.3027 40.0902 12.465C40.1713 12.6003 40.2525 12.6904 40.3021 12.6904C40.4103 12.6904 40.4058 12.6724 40.2389 12.4289C40.1398 12.2846 40.1127 12.217 40.1533 12.2035C40.2705 12.1629 40.3832 12.0141 40.3832 11.9014C40.3832 11.6985 40.2389 11.6083 39.9143 11.6083C39.752 11.6083 39.6122 11.6218 39.6032 11.6399ZM40.1488 11.7841C40.1848 11.8022 40.2029 11.8698 40.1939 11.9284C40.1803 12.0231 40.1533 12.0366 39.9684 12.0502L39.752 12.0637V11.9059C39.752 11.7481 39.7565 11.7436 39.9233 11.7436C40.0135 11.7436 40.1172 11.7616 40.1488 11.7841Z" fill="#7B2CD3"/>
<path d="M17.7707 13.1188C17.7482 13.1278 17.5723 13.1684 17.3875 13.209C16.2287 13.475 15.2052 14.3632 14.7723 15.4905C14.5334 16.1127 14.4477 16.5951 14.4432 17.312C14.4387 18.3175 14.6416 19.057 15.106 19.7604C15.629 20.5494 16.3955 21.086 17.3875 21.3565C17.7257 21.4467 17.8744 21.4602 18.65 21.4602C19.4165 21.4602 19.5743 21.4467 19.8944 21.361C20.688 21.1401 21.3643 20.7749 21.9099 20.2563C22.2571 19.9317 22.2526 19.8415 21.9009 19.571C21.7566 19.4583 21.4951 19.2148 21.3237 19.0254C21.1073 18.7955 20.9766 18.6872 20.9089 18.6872C20.8458 18.6872 20.7015 18.7774 20.5617 18.9127C20.0793 19.3501 19.4706 19.5575 18.6725 19.553C17.9421 19.5484 17.41 19.3591 17.0719 18.9713C16.9005 18.7774 16.6841 18.3356 16.639 18.0876L16.612 17.9207H19.421C20.9675 17.9207 22.2616 17.9027 22.2931 17.8802C22.4419 17.7855 22.478 17.1317 22.3698 16.4193C22.1128 14.7149 21.0938 13.5697 19.4931 13.1864C19.2091 13.1188 18.9746 13.0962 18.4696 13.1007C18.1089 13.1007 17.7978 13.1098 17.7707 13.1188ZM18.9746 14.8592C19.3038 14.9268 19.7096 15.1523 19.8989 15.3687C20.0748 15.5671 20.2551 15.9233 20.3002 16.1533L20.3318 16.2975H18.4922H16.657L16.6886 16.1533C16.8239 15.5446 17.3469 15.0351 17.9962 14.8727C18.2848 14.8006 18.6725 14.7961 18.9746 14.8592Z" fill="#7B2CD3"/>
<path d="M34.1606 13.1592C32.56 13.5154 31.4778 14.6427 31.1397 16.3064C30.9368 17.2894 31.0495 18.4346 31.4327 19.2552C31.9558 20.3915 32.9071 21.1264 34.2057 21.3924C34.616 21.4781 34.7783 21.4871 35.4231 21.4691C35.9687 21.4511 36.2617 21.4195 36.5142 21.3519C37.2853 21.149 37.9616 20.7792 38.4801 20.2833C38.8769 19.9 38.8769 19.882 38.4486 19.5258C38.2502 19.3634 37.9841 19.1064 37.8579 18.9576C37.5648 18.6195 37.4882 18.615 37.159 18.9126C36.6675 19.3589 36.0814 19.5573 35.2653 19.5528C34.12 19.5483 33.4527 19.0568 33.2363 18.0649L33.2047 17.9479H38.9175C39.1114 17.8081 39.0392 16.329 38.8048 15.6436C38.7597 15.5084 38.6379 15.2378 38.5387 15.0484C38.0112 14.0385 37.168 13.4117 35.9957 13.1637C35.6215 13.0826 34.5168 13.0826 34.1606 13.1592ZM35.5674 14.8591C35.874 14.9267 36.1896 15.0845 36.415 15.2874C36.6044 15.4633 36.911 16.0179 36.911 16.1892V16.2974H33.2498L33.2814 16.1712C33.5158 15.2063 34.5078 14.6336 35.5674 14.8591Z" fill="#7B2CD3"/>
</svg>
