<svg width="127" height="36" viewBox="0 0 127 36" fill="none" xmlns="http://www.w3.org/2000/svg">
<path d="M4.53759 7.08122C3.91359 7.08122 3.37959 6.94922 2.93559 6.68522C2.49159 6.42122 2.14959 6.04622 1.90959 5.56022C1.67559 5.07422 1.55859 4.49522 1.55859 3.82322C1.55859 3.15722 1.67559 2.58122 1.90959 2.09522C2.14959 1.60922 2.49159 1.23422 2.93559 0.970219C3.37959 0.706219 3.91359 0.574219 4.53759 0.574219C4.97559 0.574219 5.37759 0.643219 5.74359 0.781219C6.11559 0.919219 6.43059 1.12022 6.68859 1.38422L6.40059 1.98722C6.12459 1.72922 5.83659 1.54322 5.53659 1.42922C5.24259 1.30922 4.91559 1.24922 4.55559 1.24922C3.84159 1.24922 3.29559 1.47422 2.91759 1.92422C2.53959 2.37422 2.35059 3.00722 2.35059 3.82322C2.35059 4.64522 2.53959 5.28122 2.91759 5.73122C3.29559 6.18122 3.84159 6.40622 4.55559 6.40622C4.91559 6.40622 5.24259 6.34922 5.53659 6.23522C5.83659 6.11522 6.12459 5.92622 6.40059 5.66822L6.68859 6.27122C6.43059 6.52922 6.11559 6.73022 5.74359 6.87422C5.37759 7.01222 4.97559 7.08122 4.53759 7.08122Z" fill="#303030"/>
<path d="M9.20058 7.08122C8.15058 7.08122 7.62558 6.50222 7.62558 5.34422V2.62622H8.35458V5.33522C8.35458 5.72522 8.43258 6.01322 8.58858 6.19922C8.75058 6.38522 9.00258 6.47822 9.34458 6.47822C9.71658 6.47822 10.0196 6.35522 10.2536 6.10922C10.4876 5.85722 10.6046 5.52422 10.6046 5.11022V2.62622H11.3336V7.00022H10.6226V6.26222C10.4846 6.52622 10.2896 6.73022 10.0376 6.87422C9.79158 7.01222 9.51258 7.08122 9.20058 7.08122Z" fill="#303030"/>
<path d="M14.1735 7.08122C13.8315 7.08122 13.5075 7.03322 13.2015 6.93722C12.8955 6.84122 12.6435 6.70622 12.4455 6.53222L12.6795 6.01922C12.8955 6.19322 13.1325 6.32222 13.3905 6.40622C13.6545 6.48422 13.9215 6.52322 14.1915 6.52322C14.5335 6.52322 14.7915 6.46022 14.9655 6.33422C15.1395 6.20822 15.2265 6.03722 15.2265 5.82122C15.2265 5.65322 15.1695 5.52122 15.0555 5.42522C14.9415 5.32322 14.7615 5.24522 14.5155 5.19122L13.6965 5.01122C12.9525 4.84922 12.5805 4.46522 12.5805 3.85922C12.5805 3.46322 12.7365 3.14522 13.0485 2.90522C13.3665 2.66522 13.7805 2.54522 14.2905 2.54522C14.5905 2.54522 14.8755 2.59322 15.1455 2.68922C15.4215 2.77922 15.6495 2.91422 15.8295 3.09422L15.5865 3.60722C15.4125 3.44522 15.2085 3.32222 14.9745 3.23822C14.7465 3.14822 14.5185 3.10322 14.2905 3.10322C13.9545 3.10322 13.6995 3.16922 13.5255 3.30122C13.3515 3.43322 13.2645 3.60722 13.2645 3.82322C13.2645 4.15922 13.4865 4.37522 13.9305 4.47122L14.7495 4.64222C15.1335 4.72622 15.4245 4.86122 15.6225 5.04722C15.8205 5.22722 15.9195 5.47322 15.9195 5.78522C15.9195 6.18722 15.7605 6.50522 15.4425 6.73922C15.1245 6.96722 14.7015 7.08122 14.1735 7.08122Z" fill="#303030"/>
<path d="M18.7416 7.08122C18.2256 7.08122 17.8386 6.94622 17.5806 6.67622C17.3226 6.40022 17.1936 6.00422 17.1936 5.48822V3.19322H16.3386V2.62622H17.1936V1.28522H17.9226V2.62622H19.3086V3.19322H17.9226V5.41622C17.9226 5.75822 17.9946 6.01922 18.1386 6.19922C18.2826 6.37322 18.5166 6.46022 18.8406 6.46022C18.9366 6.46022 19.0326 6.44822 19.1286 6.42422C19.2246 6.40022 19.3116 6.37622 19.3896 6.35222L19.5156 6.91022C19.4376 6.95222 19.3236 6.99122 19.1736 7.02722C19.0236 7.06322 18.8796 7.08122 18.7416 7.08122Z" fill="#303030"/>
<path d="M21.9071 7.08122C21.4811 7.08122 21.1121 6.98822 20.8001 6.80222C20.4881 6.61622 20.2451 6.35522 20.0711 6.01922C19.9031 5.67722 19.8191 5.27522 19.8191 4.81322C19.8191 4.35122 19.9031 3.95222 20.0711 3.61622C20.2451 3.27422 20.4881 3.01022 20.8001 2.82422C21.1121 2.63822 21.4811 2.54522 21.9071 2.54522C22.3271 2.54522 22.6931 2.63822 23.0051 2.82422C23.3231 3.01022 23.5661 3.27422 23.7341 3.61622C23.9081 3.95222 23.9951 4.35122 23.9951 4.81322C23.9951 5.27522 23.9081 5.67722 23.7341 6.01922C23.5661 6.35522 23.3231 6.61622 23.0051 6.80222C22.6931 6.98822 22.3271 7.08122 21.9071 7.08122ZM21.9071 6.49622C22.3151 6.49622 22.6421 6.35222 22.8881 6.06422C23.1341 5.77022 23.2571 5.35322 23.2571 4.81322C23.2571 4.26722 23.1341 3.85022 22.8881 3.56222C22.6421 3.27422 22.3151 3.13022 21.9071 3.13022C21.4931 3.13022 21.1631 3.27422 20.9171 3.56222C20.6771 3.85022 20.5571 4.26722 20.5571 4.81322C20.5571 5.35322 20.6771 5.77022 20.9171 6.06422C21.1631 6.35222 21.4931 6.49622 21.9071 6.49622Z" fill="#303030"/>
<path d="M25.1081 7.00022V2.62622H25.8191V3.36422C25.9511 3.10022 26.1341 2.89922 26.3681 2.76122C26.6021 2.61722 26.8751 2.54522 27.1871 2.54522C27.8711 2.54522 28.3091 2.84222 28.5011 3.43622C28.6331 3.16022 28.8281 2.94422 29.0861 2.78822C29.3441 2.62622 29.6411 2.54522 29.9771 2.54522C30.9491 2.54522 31.4351 3.12122 31.4351 4.27322V7.00022H30.7061V4.30922C30.7061 3.90722 30.6341 3.61322 30.4901 3.42722C30.3521 3.23522 30.1211 3.13922 29.7971 3.13922C29.4431 3.13922 29.1611 3.26522 28.9511 3.51722C28.7411 3.76922 28.6361 4.10522 28.6361 4.52522V7.00022H27.9071V4.30922C27.9071 3.90722 27.8351 3.61322 27.6911 3.42722C27.5531 3.23522 27.3221 3.13922 26.9981 3.13922C26.6381 3.13922 26.3531 3.26522 26.1431 3.51722C25.9391 3.76922 25.8371 4.10522 25.8371 4.52522V7.00022H25.1081Z" fill="#303030"/>
<path d="M34.7691 7.08122C34.0791 7.08122 33.5331 6.88022 33.1311 6.47822C32.7291 6.07022 32.5281 5.51822 32.5281 4.82222C32.5281 4.37222 32.6181 3.97622 32.7981 3.63422C32.9781 3.28622 33.2241 3.01922 33.5361 2.83322C33.8541 2.64122 34.2201 2.54522 34.6341 2.54522C35.2281 2.54522 35.6931 2.73722 36.0291 3.12122C36.3651 3.49922 36.5331 4.02122 36.5331 4.68722V4.96622H33.2391C33.2631 5.46422 33.4071 5.84522 33.6711 6.10922C33.9351 6.36722 34.3011 6.49622 34.7691 6.49622C35.0331 6.49622 35.2851 6.45722 35.5251 6.37922C35.7651 6.29522 35.9931 6.16022 36.2091 5.97422L36.4611 6.48722C36.2631 6.67322 36.0111 6.82022 35.7051 6.92822C35.3991 7.03022 35.0871 7.08122 34.7691 7.08122ZM34.6521 3.08522C34.2381 3.08522 33.9111 3.21422 33.6711 3.47222C33.4311 3.73022 33.2901 4.06922 33.2481 4.48922H35.9031C35.8851 4.04522 35.7681 3.70022 35.5521 3.45422C35.3421 3.20822 35.0421 3.08522 34.6521 3.08522Z" fill="#303030"/>
<path d="M37.5881 7.00022V2.62622H38.2991V3.40922C38.5331 2.88122 39.0131 2.59022 39.7391 2.53622L40.0001 2.50922L40.0541 3.13922L39.5951 3.19322C39.1811 3.22922 38.8661 3.36122 38.6501 3.58922C38.4341 3.81122 38.3261 4.11722 38.3261 4.50722V7.00022H37.5881Z" fill="#303030"/>
<path d="M42.2458 7.08122C41.9038 7.08122 41.5798 7.03322 41.2738 6.93722C40.9678 6.84122 40.7158 6.70622 40.5178 6.53222L40.7518 6.01922C40.9678 6.19322 41.2048 6.32222 41.4628 6.40622C41.7268 6.48422 41.9938 6.52322 42.2638 6.52322C42.6058 6.52322 42.8638 6.46022 43.0378 6.33422C43.2118 6.20822 43.2988 6.03722 43.2988 5.82122C43.2988 5.65322 43.2418 5.52122 43.1278 5.42522C43.0138 5.32322 42.8338 5.24522 42.5878 5.19122L41.7688 5.01122C41.0248 4.84922 40.6528 4.46522 40.6528 3.85922C40.6528 3.46322 40.8088 3.14522 41.1208 2.90522C41.4388 2.66522 41.8528 2.54522 42.3628 2.54522C42.6628 2.54522 42.9478 2.59322 43.2178 2.68922C43.4938 2.77922 43.7218 2.91422 43.9018 3.09422L43.6588 3.60722C43.4848 3.44522 43.2808 3.32222 43.0468 3.23822C42.8188 3.14822 42.5908 3.10322 42.3628 3.10322C42.0268 3.10322 41.7718 3.16922 41.5978 3.30122C41.4238 3.43322 41.3368 3.60722 41.3368 3.82322C41.3368 4.15922 41.5588 4.37522 42.0028 4.47122L42.8218 4.64222C43.2058 4.72622 43.4968 4.86122 43.6948 5.04722C43.8928 5.22722 43.9918 5.47322 43.9918 5.78522C43.9918 6.18722 43.8328 6.50522 43.5148 6.73922C43.1968 6.96722 42.7738 7.08122 42.2458 7.08122Z" fill="#303030"/>
<path d="M47.5133 7.00022V0.655219H50.0243C50.7083 0.655219 51.2303 0.814219 51.5903 1.13222C51.9563 1.45022 52.1393 1.90322 52.1393 2.49122C52.1393 2.95922 52.0103 3.34322 51.7523 3.64322C51.5003 3.94322 51.1403 4.13822 50.6723 4.22822C50.9483 4.32422 51.1853 4.55822 51.3833 4.93022L52.4993 7.00022H51.6893L50.5913 4.96622C50.4533 4.71422 50.2943 4.54322 50.1143 4.45322C49.9343 4.36322 49.6973 4.31822 49.4033 4.31822H48.2513V7.00022H47.5133ZM48.2513 3.73322H49.9163C50.9123 3.73322 51.4103 3.31922 51.4103 2.49122C51.4103 1.67522 50.9123 1.26722 49.9163 1.26722H48.2513V3.73322Z" fill="#303030"/>
<path d="M55.3091 7.08122C54.6191 7.08122 54.0731 6.88022 53.6711 6.47822C53.2691 6.07022 53.0681 5.51822 53.0681 4.82222C53.0681 4.37222 53.1581 3.97622 53.3381 3.63422C53.5181 3.28622 53.7641 3.01922 54.0761 2.83322C54.3941 2.64122 54.7601 2.54522 55.1741 2.54522C55.7681 2.54522 56.2331 2.73722 56.5691 3.12122C56.9051 3.49922 57.0731 4.02122 57.0731 4.68722V4.96622H53.7791C53.8031 5.46422 53.9471 5.84522 54.2111 6.10922C54.4751 6.36722 54.8411 6.49622 55.3091 6.49622C55.5731 6.49622 55.8251 6.45722 56.0651 6.37922C56.3051 6.29522 56.5331 6.16022 56.7491 5.97422L57.0011 6.48722C56.8031 6.67322 56.5511 6.82022 56.2451 6.92822C55.9391 7.03022 55.6271 7.08122 55.3091 7.08122ZM55.1921 3.08522C54.7781 3.08522 54.4511 3.21422 54.2111 3.47222C53.9711 3.73022 53.8301 4.06922 53.7881 4.48922H56.4431C56.4251 4.04522 56.3081 3.70022 56.0921 3.45422C55.8821 3.20822 55.5821 3.08522 55.1921 3.08522Z" fill="#303030"/>
<path d="M59.3624 7.00022L57.4814 2.62622H58.2734L59.7224 6.17222L61.1894 2.62622H61.9364L60.0464 7.00022H59.3624Z" fill="#303030"/>
<path d="M62.6173 1.53722V0.718219H63.5173V1.53722H62.6173ZM62.7073 7.00022V2.62622H63.4363V7.00022H62.7073Z" fill="#303030"/>
<path d="M66.7701 7.08122C66.0801 7.08122 65.5341 6.88022 65.1321 6.47822C64.7301 6.07022 64.5291 5.51822 64.5291 4.82222C64.5291 4.37222 64.6191 3.97622 64.7991 3.63422C64.9791 3.28622 65.2251 3.01922 65.5371 2.83322C65.8551 2.64122 66.2211 2.54522 66.6351 2.54522C67.2291 2.54522 67.6941 2.73722 68.0301 3.12122C68.3661 3.49922 68.5341 4.02122 68.5341 4.68722V4.96622H65.2401C65.2641 5.46422 65.4081 5.84522 65.6721 6.10922C65.9361 6.36722 66.3021 6.49622 66.7701 6.49622C67.0341 6.49622 67.2861 6.45722 67.5261 6.37922C67.7661 6.29522 67.9941 6.16022 68.2101 5.97422L68.4621 6.48722C68.2641 6.67322 68.0121 6.82022 67.7061 6.92822C67.4001 7.03022 67.0881 7.08122 66.7701 7.08122ZM66.6531 3.08522C66.2391 3.08522 65.9121 3.21422 65.6721 3.47222C65.4321 3.73022 65.2911 4.06922 65.2491 4.48922H67.9041C67.8861 4.04522 67.7691 3.70022 67.5531 3.45422C67.3431 3.20822 67.0431 3.08522 66.6531 3.08522Z" fill="#303030"/>
<path d="M70.6974 7.00022L69.0684 2.62622H69.8334L71.0664 6.14522L72.3444 2.62622H72.9654L74.2254 6.15422L75.4764 2.62622H76.2054L74.5674 7.00022H73.8744L72.6414 3.60722L71.3994 7.00022H70.6974Z" fill="#303030"/>
<path d="M76.9867 3.54422V2.62622H77.9047V3.54422H76.9867ZM76.9867 7.00022V6.08222H77.9047V7.00022H76.9867Z" fill="#303030"/>
<path d="M81.5249 7.00022V0.655219H85.7459V1.57322H82.6319V3.31922H85.5479V4.23722H82.6319V6.08222H85.7459V7.00022H81.5249Z" fill="#303030"/>
<path d="M86.175 7.00022L88.02 4.72322L86.292 2.59922H87.606L88.668 3.95822L89.73 2.59922H91.044L89.307 4.73222L91.161 7.00022H89.838L88.659 5.51522L87.489 7.00022H86.175Z" fill="#303030"/>
<path d="M93.6198 7.09022C93.1578 7.09022 92.7558 6.99722 92.4138 6.81122C92.0718 6.61922 91.8078 6.34922 91.6218 6.00122C91.4358 5.65322 91.3428 5.24522 91.3428 4.77722C91.3428 4.30922 91.4358 3.90722 91.6218 3.57122C91.8078 3.22922 92.0718 2.96822 92.4138 2.78822C92.7558 2.60222 93.1578 2.50922 93.6198 2.50922C93.9018 2.50922 94.1808 2.55422 94.4568 2.64422C94.7328 2.73422 94.9608 2.86022 95.1408 3.02222L94.8078 3.80522C94.6518 3.66722 94.4748 3.56222 94.2768 3.49022C94.0848 3.41822 93.8988 3.38222 93.7188 3.38222C93.3288 3.38222 93.0258 3.50522 92.8098 3.75122C92.5998 3.99122 92.4948 4.33622 92.4948 4.78622C92.4948 5.23022 92.5998 5.58122 92.8098 5.83922C93.0258 6.09122 93.3288 6.21722 93.7188 6.21722C93.8928 6.21722 94.0788 6.18122 94.2768 6.10922C94.4748 6.03722 94.6518 5.92922 94.8078 5.78522L95.1408 6.57722C94.9608 6.73322 94.7298 6.85922 94.4478 6.95522C94.1718 7.04522 93.8958 7.09022 93.6198 7.09022Z" fill="#303030"/>
<path d="M97.912 7.09022C97.414 7.09022 96.985 6.99722 96.625 6.81122C96.265 6.62522 95.986 6.36122 95.788 6.01922C95.596 5.67722 95.5 5.27222 95.5 4.80422C95.5 4.34822 95.593 3.94922 95.779 3.60722C95.971 3.26522 96.232 2.99822 96.562 2.80622C96.898 2.60822 97.279 2.50922 97.705 2.50922C98.329 2.50922 98.821 2.70722 99.181 3.10322C99.547 3.49922 99.73 4.03922 99.73 4.72322V5.05622H96.58C96.664 5.84222 97.114 6.23522 97.93 6.23522C98.176 6.23522 98.422 6.19922 98.668 6.12722C98.914 6.04922 99.139 5.92922 99.343 5.76722L99.658 6.52322C99.448 6.69722 99.184 6.83522 98.866 6.93722C98.548 7.03922 98.23 7.09022 97.912 7.09022ZM97.75 3.27422C97.42 3.27422 97.153 3.37622 96.949 3.58022C96.745 3.78422 96.622 4.06022 96.58 4.40822H98.794C98.77 4.04222 98.668 3.76322 98.488 3.57122C98.314 3.37322 98.068 3.27422 97.75 3.27422Z" fill="#303030"/>
<path d="M102.151 7.09022C101.629 7.09022 101.242 6.94922 100.99 6.66722C100.744 6.37922 100.621 5.95922 100.621 5.40722V0.655219H101.746V5.35322C101.746 5.89322 101.974 6.16322 102.43 6.16322C102.496 6.16322 102.562 6.16022 102.628 6.15422C102.694 6.14822 102.757 6.13622 102.817 6.11822L102.799 7.00922C102.583 7.06322 102.367 7.09022 102.151 7.09022Z" fill="#303030"/>
<path d="M105.025 7.09022C104.503 7.09022 104.116 6.94922 103.864 6.66722C103.618 6.37922 103.495 5.95922 103.495 5.40722V0.655219H104.62V5.35322C104.62 5.89322 104.848 6.16322 105.304 6.16322C105.37 6.16322 105.436 6.16022 105.502 6.15422C105.568 6.14822 105.631 6.13622 105.691 6.11822L105.673 7.00922C105.457 7.06322 105.241 7.09022 105.025 7.09022Z" fill="#303030"/>
<path d="M108.494 7.09022C107.996 7.09022 107.567 6.99722 107.207 6.81122C106.847 6.62522 106.568 6.36122 106.37 6.01922C106.178 5.67722 106.082 5.27222 106.082 4.80422C106.082 4.34822 106.175 3.94922 106.361 3.60722C106.553 3.26522 106.814 2.99822 107.144 2.80622C107.48 2.60822 107.861 2.50922 108.287 2.50922C108.911 2.50922 109.403 2.70722 109.763 3.10322C110.129 3.49922 110.312 4.03922 110.312 4.72322V5.05622H107.162C107.246 5.84222 107.696 6.23522 108.512 6.23522C108.758 6.23522 109.004 6.19922 109.25 6.12722C109.496 6.04922 109.721 5.92922 109.925 5.76722L110.24 6.52322C110.03 6.69722 109.766 6.83522 109.448 6.93722C109.13 7.03922 108.812 7.09022 108.494 7.09022ZM108.332 3.27422C108.002 3.27422 107.735 3.37622 107.531 3.58022C107.327 3.78422 107.204 4.06022 107.162 4.40822H109.376C109.352 4.04222 109.25 3.76322 109.07 3.57122C108.896 3.37322 108.65 3.27422 108.332 3.27422Z" fill="#303030"/>
<path d="M111.203 7.00022V2.59922H112.301V3.28322C112.451 3.03122 112.652 2.83922 112.904 2.70722C113.162 2.57522 113.45 2.50922 113.768 2.50922C114.806 2.50922 115.325 3.11222 115.325 4.31822V7.00022H114.2V4.37222C114.2 4.03022 114.134 3.78122 114.002 3.62522C113.876 3.46922 113.678 3.39122 113.408 3.39122C113.078 3.39122 112.814 3.49622 112.616 3.70622C112.424 3.91022 112.328 4.18322 112.328 4.52522V7.00022H111.203Z" fill="#303030"/>
<path d="M118.484 7.09022C117.32 7.09022 116.738 6.51422 116.738 5.36222V3.44522H115.892V2.59922H116.738V1.28522H117.863V2.59922H119.195V3.44522H117.863V5.29922C117.863 5.58722 117.926 5.80322 118.052 5.94722C118.178 6.09122 118.382 6.16322 118.664 6.16322C118.748 6.16322 118.835 6.15422 118.925 6.13622C119.015 6.11222 119.108 6.08822 119.204 6.06422L119.375 6.89222C119.267 6.95222 119.129 7.00022 118.961 7.03622C118.799 7.07222 118.64 7.09022 118.484 7.09022Z" fill="#303030"/>
<rect y="13.8677" width="21.211" height="21.211" fill="#11B87A"/>
<path d="M9.9751 15.8079C10.1735 15.1972 11.0375 15.1972 11.2359 15.8079L12.8378 20.7379C12.9265 21.011 13.181 21.1959 13.4682 21.1959L18.6519 21.1959C19.294 21.1959 19.561 22.0176 19.0415 22.395L14.8478 25.4419C14.6155 25.6107 14.5183 25.9099 14.607 26.183L16.2089 31.113C16.4073 31.7237 15.7083 32.2315 15.1888 31.8541L10.9951 28.8072C10.7628 28.6384 10.4482 28.6384 10.2159 28.8072L6.02216 31.8541C5.50268 32.2315 4.80372 31.7237 5.00215 31.113L6.60401 26.183C6.69275 25.9099 6.59554 25.6107 6.36322 25.4419L2.16948 22.395C1.65 22.0176 1.91698 21.1959 2.55909 21.1959L7.74283 21.1959C8.03 21.1959 8.2845 21.011 8.37324 20.7379L9.9751 15.8079Z" fill="white"/>
<rect x="26.2446" y="13.8677" width="21.211" height="21.211" fill="#11B87A"/>
<path d="M36.2197 15.8079C36.4182 15.1972 37.2821 15.1972 37.4805 15.8079L39.0824 20.7379C39.1711 21.011 39.4256 21.1959 39.7128 21.1959L44.8965 21.1959C45.5387 21.1959 45.8056 22.0176 45.2861 22.395L41.0924 25.4419C40.8601 25.6107 40.7629 25.9099 40.8516 26.183L42.4535 31.113C42.6519 31.7237 41.953 32.2315 41.4335 31.8541L37.2397 28.8072C37.0074 28.6384 36.6928 28.6384 36.4605 28.8072L32.2668 31.8541C31.7473 32.2315 31.0484 31.7237 31.2468 31.113L32.8486 26.183C32.9374 25.9099 32.8402 25.6107 32.6078 25.4419L28.4141 22.395C27.8946 22.0176 28.1616 21.1959 28.8037 21.1959L33.9875 21.1959C34.2746 21.1959 34.5291 21.011 34.6179 20.7379L36.2197 15.8079Z" fill="white"/>
<rect x="52.4868" y="13.8677" width="21.211" height="21.211" fill="#11B87A"/>
<path d="M62.4619 15.8079C62.6603 15.1972 63.5243 15.1972 63.7227 15.8079L65.3246 20.7379C65.4133 21.011 65.6678 21.1959 65.955 21.1959L71.1387 21.1959C71.7808 21.1959 72.0478 22.0176 71.5283 22.395L67.3346 25.4419C67.1023 25.6107 67.0051 25.9099 67.0938 26.183L68.6957 31.113C68.8941 31.7237 68.1951 32.2315 67.6757 31.8541L63.4819 28.8072C63.2496 28.6384 62.935 28.6384 62.7027 28.8072L58.509 31.8541C57.9895 32.2315 57.2905 31.7237 57.489 31.113L59.0908 26.183C59.1796 25.9099 59.0824 25.6107 58.85 25.4419L54.6563 22.395C54.1368 22.0176 54.4038 21.1959 55.0459 21.1959L60.2297 21.1959C60.5168 21.1959 60.7713 21.011 60.8601 20.7379L62.4619 15.8079Z" fill="white"/>
<rect x="78.7305" y="13.8677" width="21.211" height="21.211" fill="#11B87A"/>
<path d="M88.7056 15.8079C88.904 15.1972 89.7679 15.1972 89.9664 15.8079L91.5682 20.7379C91.657 21.011 91.9115 21.1959 92.1986 21.1959L97.3824 21.1959C98.0245 21.1959 98.2915 22.0176 97.772 22.395L93.5783 25.4419C93.3459 25.6107 93.2487 25.9099 93.3375 26.183L94.9393 31.113C95.1378 31.7237 94.4388 32.2315 93.9193 31.8541L89.7256 28.8072C89.4933 28.6384 89.1787 28.6384 88.9464 28.8072L84.7526 31.8541C84.2331 32.2315 83.5342 31.7237 83.7326 31.113L85.3345 26.183C85.4232 25.9099 85.326 25.6107 85.0937 25.4419L80.9 22.395C80.3805 22.0176 80.6474 21.1959 81.2896 21.1959L86.4733 21.1959C86.7605 21.1959 87.015 21.011 87.1037 20.7379L88.7056 15.8079Z" fill="white"/>
<rect x="104.975" y="13.8677" width="21.211" height="21.211" fill="#11B87A"/>
<path d="M114.95 15.8079C115.148 15.1972 116.012 15.1972 116.211 15.8079L117.812 20.7379C117.901 21.011 118.156 21.1959 118.443 21.1959L123.627 21.1959C124.269 21.1959 124.536 22.0176 124.016 22.395L119.822 25.4419C119.59 25.6107 119.493 25.9099 119.582 26.183L121.183 31.113C121.382 31.7237 120.683 32.2315 120.163 31.8541L115.97 28.8072C115.737 28.6384 115.423 28.6384 115.191 28.8072L110.997 31.8541C110.477 32.2315 109.778 31.7237 109.977 31.113L111.579 26.183C111.667 25.9099 111.57 25.6107 111.338 25.4419L107.144 22.395C106.625 22.0176 106.892 21.1959 107.534 21.1959L112.717 21.1959C113.005 21.1959 113.259 21.011 113.348 20.7379L114.95 15.8079Z" fill="white"/>
</svg>
