<svg width="135" height="135" viewBox="0 0 135 135" fill="none" xmlns="http://www.w3.org/2000/svg">
<path d="M97.875 74.25C106.853 74.25 115.088 71.064 121.5 65.7653V97.875C121.5 102.351 119.722 106.643 116.557 109.807C113.393 112.972 109.101 114.75 104.625 114.75H30.375C25.8995 114.75 21.6072 112.972 18.4426 109.807C15.2779 106.643 13.5 102.351 13.5 97.875V49.7677L65.7922 80.5342C66.3109 80.8393 66.9017 81.0002 67.5034 81.0002C68.1051 81.0002 68.6959 80.8393 69.2145 80.5342L84.267 71.6783C88.6009 73.3836 93.2176 74.2561 97.875 74.25ZM30.375 27H62.1472C60.0036 34.5492 60.3091 42.5837 63.0199 49.9483C65.7307 57.3129 70.7071 63.6281 77.2335 67.986L67.5 73.71L13.6013 42.0052C14.0613 37.8786 16.0267 34.0664 19.1214 31.298C22.216 28.5296 26.2228 26.9993 30.375 27ZM97.875 67.5C105.931 67.5 113.657 64.2998 119.353 58.6034C125.05 52.9069 128.25 45.181 128.25 37.125C128.25 29.069 125.05 21.343 119.353 15.6466C113.657 9.95021 105.931 6.75 97.875 6.75C89.819 6.75 82.093 9.95021 76.3966 15.6466C70.7002 21.343 67.5 29.069 67.5 37.125C67.5 45.181 70.7002 52.9069 76.3966 58.6034C82.093 64.2998 89.819 67.5 97.875 67.5ZM113.765 29.3895L93.5145 49.6395C93.201 49.9538 92.8286 50.2032 92.4185 50.3733C92.0085 50.5435 91.5689 50.631 91.125 50.631C90.6811 50.631 90.2415 50.5435 89.8315 50.3733C89.4214 50.2032 89.049 49.9538 88.7355 49.6395L81.9855 42.8895C81.3518 42.2558 80.9957 41.3962 80.9957 40.5C80.9957 39.6038 81.3518 38.7442 81.9855 38.1105C82.6192 37.4768 83.4788 37.1207 84.375 37.1207C85.2712 37.1207 86.1308 37.4768 86.7645 38.1105L91.125 42.4778L108.985 24.6105C109.619 23.9768 110.479 23.6207 111.375 23.6207C112.271 23.6207 113.131 23.9768 113.765 24.6105C114.398 25.2442 114.754 26.1038 114.754 27C114.754 27.8962 114.398 28.7558 113.765 29.3895Z" fill="#2B68DE"/>
</svg>
