<svg width="33" height="32" viewBox="0 0 33 32" fill="none" xmlns="http://www.w3.org/2000/svg">
<path d="M10.3335 5.77778C10.3335 5.34822 10.9193 5 11.3335 5C11.7477 5 12.3335 5.34822 12.3335 5.77778V7.33333H10.3335V5.77778Z" fill="#27273F"/>
<path d="M20.3335 5.77778C20.3335 5.34822 20.9193 5 21.3335 5C21.7477 5 22.3335 5.34822 22.3335 5.77778V7.33333H20.3335V5.77778Z" fill="#27273F"/>
<path fill-rule="evenodd" clip-rule="evenodd" d="M10.3335 7.33333H8.0835C7.66928 7.33333 7.3335 7.68156 7.3335 8.11111V25.2222C7.3335 25.6518 7.66928 26 8.0835 26H24.5835C24.9977 26 25.3335 25.6518 25.3335 25.2222V8.11111C25.3335 7.68156 24.9977 7.33333 24.5835 7.33333H22.3335H20.3335H12.3335H10.3335ZM23.8335 12H8.8335V24.4444H23.8335V12Z" fill="#27273F"/>
<path d="M10.3335 15.5C10.3335 14.6716 11.0051 14 11.8335 14C12.6619 14 13.3335 14.6716 13.3335 15.5C13.3335 16.3284 12.6619 17 11.8335 17C11.0051 17 10.3335 16.3284 10.3335 15.5Z" fill="#27273F"/>
<path d="M22.3335 18.5C22.3335 17.6716 21.6619 17 20.8335 17C20.0051 17 19.3335 17.6716 19.3335 18.5C19.3335 19.3284 20.0051 20 20.8335 20C21.6619 20 22.3335 19.3284 22.3335 18.5Z" fill="#27273F"/>
</svg>
