<svg width="33" height="32" viewBox="0 0 33 32" fill="none" xmlns="http://www.w3.org/2000/svg">
<path fill-rule="evenodd" clip-rule="evenodd" d="M7.50792 9.47881C7.23744 9.39093 6.95278 9.56695 6.91056 9.84821L6.40392 13.223C6.33135 13.7064 6.61891 14.1715 7.08382 14.3225L24.3431 19.9304C25.1496 20.1924 26.0158 19.7511 26.2778 18.9446C26.5502 18.1063 26.0624 17.2113 25.2103 16.9858L19.8986 15.5804L18.5705 6.20726C18.5154 5.81835 18.2436 5.4948 17.8701 5.37342C17.2441 5.17003 16.5908 5.59884 16.5284 6.25407L15.7683 14.2384L8.51211 12.2958L7.8088 9.79207C7.76718 9.64392 7.65428 9.52637 7.50792 9.47881ZM26.3442 22.9521H5.81421V24.5314H26.3442V22.9521Z" fill="#27273F"/>
</svg>
