<svg width="25" height="25" viewBox="0 0 25 25" fill="none" xmlns="http://www.w3.org/2000/svg">
<g clip-path="url(#clip0_0_10378)">
<path d="M12.7998 20.4116H10.6998V15.7241L16.9998 9.42408C17.5998 8.82408 17.1873 7.81158 16.3623 7.81158H2.59976C1.77476 7.81158 1.36226 8.82408 1.96226 9.42408L8.29976 15.7241V20.4116H6.19976C5.33726 20.4116 4.69976 21.0866 4.69976 21.9116C4.69976 22.0991 4.81226 22.2116 4.99976 22.2116H13.9998C14.1498 22.2116 14.2998 22.0991 14.2998 21.9116C14.2998 21.0866 13.6248 20.4116 12.7998 20.4116ZM17.8998 3.01158C15.5373 3.01158 13.5498 4.54908 12.7998 6.61158H14.7873C15.4248 5.56158 16.5498 4.81158 17.8998 4.81158C19.8498 4.81158 21.4998 6.46158 21.4998 8.41158C21.4998 10.3991 19.8498 12.0116 17.8998 12.0116C17.3373 12.0116 16.8498 11.8991 16.3998 11.7116L15.0873 13.0241C15.9123 13.5116 16.8498 13.8116 17.8998 13.8116C20.8623 13.8116 23.2998 11.4116 23.2998 8.41158C23.2998 5.44908 20.8623 3.01158 17.8998 3.01158Z" fill="#75788E"/>
</g>
<defs>
<clipPath id="clip0_0_10378">
<rect width="24" height="24" fill="white" transform="translate(0.5 0.311676)"/>
</clipPath>
</defs>
</svg>
