<svg width="24" height="25" viewBox="0 0 24 25" fill="none" xmlns="http://www.w3.org/2000/svg">
<path d="M6.03984 17.9238C6.08672 17.9238 6.13359 17.9191 6.18047 17.9121L10.1227 17.2207C10.1695 17.2113 10.2141 17.1902 10.2469 17.1551L20.182 7.21992C20.2038 7.19824 20.221 7.17248 20.2328 7.14413C20.2445 7.11578 20.2506 7.08538 20.2506 7.05469C20.2506 7.02399 20.2445 6.9936 20.2328 6.96524C20.221 6.93689 20.2038 6.91114 20.182 6.88945L16.2867 2.9918C16.2422 2.94727 16.1836 2.92383 16.1203 2.92383C16.057 2.92383 15.9984 2.94727 15.9539 2.9918L6.01875 12.927C5.98359 12.9621 5.9625 13.0043 5.95312 13.0512L5.26172 16.9934C5.23892 17.1189 5.24707 17.2481 5.28545 17.3698C5.32384 17.4915 5.39132 17.602 5.48203 17.6918C5.63672 17.8418 5.83125 17.9238 6.03984 17.9238ZM7.61953 13.8363L16.1203 5.33789L17.8383 7.05586L9.3375 15.5543L7.25391 15.9223L7.61953 13.8363ZM20.625 19.8926H3.375C2.96016 19.8926 2.625 20.2277 2.625 20.6426V21.4863C2.625 21.5895 2.70937 21.6738 2.8125 21.6738H21.1875C21.2906 21.6738 21.375 21.5895 21.375 21.4863V20.6426C21.375 20.2277 21.0398 19.8926 20.625 19.8926Z" fill="#FAFAFA"/>
</svg>
