<svg width="34" height="34" viewBox="0 0 34 34" fill="none" xmlns="http://www.w3.org/2000/svg">
<path d="M29.6496 4.32717C28.6407 5.19695 27.663 6.09282 26.6019 7.04436C27.9153 7.3627 27.9101 7.35748 27.2316 8.40469C24.8484 12.0786 21.4911 14.5401 17.5162 16.2414C13.6787 17.8853 9.61163 18.6298 5.51323 19.2839C3.93719 19.5361 3.44141 19.5327 3.26919 18.635C2.66963 18.6594 2.06948 18.6907 1.46875 18.729V19.6388C1.97844 21.9002 2.68644 24.0868 3.93892 26.056C5.52538 28.5743 7.82694 30.5621 10.5493 31.7652C11.0102 31.2973 11.4451 30.8015 11.5808 30.1892C11.5922 30.1406 11.6074 30.0929 11.626 30.0466L11.4782 29.9665C11.713 29.7665 11.88 29.6186 12.0609 29.4725C16.3559 26.2334 19.9237 22.3073 22.9645 17.8923C25.0205 14.8749 26.8515 11.7102 28.4424 8.42383C28.5867 8.12984 28.6372 7.32791 29.3208 8.04287C29.5226 8.25335 29.6861 7.99764 29.7209 7.78541C29.8949 6.73124 30.0689 5.67533 30.1889 4.61419C30.2376 4.21757 29.9645 4.05927 29.6496 4.32717Z" fill="#2B68DE"/>
<path d="M31.2204 10.5774C32.6398 13.9009 32.8415 17.6186 31.79 21.0761C30.7384 24.5337 28.501 27.5096 25.4716 29.4801C22.4421 31.4506 18.8147 32.2894 15.2277 31.8489C11.6407 31.4084 8.32399 29.7168 5.8613 27.0719C3.3986 24.427 1.94773 20.9982 1.76401 17.3889C1.58028 13.7796 2.67549 10.2212 4.85688 7.33988C7.03827 4.45855 10.166 2.43895 13.6898 1.6365C17.2135 0.834057 20.9073 1.30019 24.1213 2.95287" stroke="#2B68DE" stroke-width="2.43538" stroke-miterlimit="10" stroke-linecap="round"/>
</svg>
