<svg width="29" height="30" viewBox="0 0 29 30" fill="none" xmlns="http://www.w3.org/2000/svg">
<g clip-path="url(#clip0_0_10316)">
<path d="M20.8997 21.4003H8.29971C6.61221 21.4003 5.29971 20.0878 5.29971 18.4003V10.6002H4.69971C3.68721 10.6002 2.89971 11.4252 2.89971 12.4002V22.0003C2.89971 23.0128 3.68721 23.8003 4.69971 23.8003H19.0997C20.0747 23.8003 20.8997 23.0128 20.8997 22.0003V21.4003ZM24.4997 18.4003V8.80025C24.4997 7.82525 23.6747 7.00025 22.6997 7.00025H8.29971C7.28721 7.00025 6.49971 7.82525 6.49971 8.80025V18.4003C6.49971 19.4128 7.28721 20.2003 8.29971 20.2003H22.6997C23.6747 20.2003 24.4997 19.4128 24.4997 18.4003ZM12.4997 10.6002C12.4997 11.6127 11.6747 12.4002 10.6997 12.4002C9.68721 12.4002 8.89971 11.6127 8.89971 10.6002C8.89971 9.62525 9.68721 8.80025 10.6997 8.80025C11.6747 8.80025 12.4997 9.62525 12.4997 10.6002ZM8.89971 16.0002L10.9622 13.9377C11.1497 13.7502 11.4122 13.7502 11.5997 13.9377L13.0997 15.4002L18.1622 10.3377C18.3497 10.1502 18.6122 10.1502 18.7997 10.3377L22.0997 13.6002V17.8003H8.89971V16.0002Z" fill="#27273F"/>
</g>
<defs>
<clipPath id="clip0_0_10316">
<rect width="28.8" height="28.8" fill="white" transform="translate(0.100098 0.60025)"/>
</clipPath>
</defs>
</svg>
