<svg width="48" height="48" viewBox="0 0 48 48" fill="none" xmlns="http://www.w3.org/2000/svg">
<rect width="48" height="48" rx="6" fill="#EEF2FF"/>
<path d="M21.003 18C21.003 17.2051 21.3188 16.4428 21.8808 15.8808C22.4428 15.3187 23.2051 15.003 24 15.003C24.7949 15.003 25.5572 15.3187 26.1192 15.8808C26.6812 16.4428 26.997 17.2051 26.997 18C26.997 18.7948 26.6812 19.5571 26.1192 20.1192C25.5572 20.6812 24.7949 20.997 24 20.997C23.2051 20.997 22.4428 20.6812 21.8808 20.1192C21.3188 19.5571 21.003 18.7948 21.003 18ZM24 16.503C23.8034 16.503 23.6087 16.5417 23.4271 16.6169C23.2455 16.6922 23.0805 16.8024 22.9415 16.9415C22.8025 17.0805 22.6922 17.2455 22.617 17.4271C22.5417 17.6087 22.503 17.8034 22.503 18C22.503 18.1966 22.5417 18.3912 22.617 18.5729C22.6922 18.7545 22.8025 18.9195 22.9415 19.0585C23.0805 19.1975 23.2455 19.3078 23.4271 19.383C23.6087 19.4583 23.8034 19.497 24 19.497C24.397 19.497 24.7778 19.3393 25.0585 19.0585C25.3393 18.7778 25.497 18.397 25.497 18C25.497 17.603 25.3393 17.2222 25.0585 16.9415C24.7778 16.6607 24.397 16.503 24 16.503ZM28.5 18.75C28.5 18.4545 28.5582 18.1619 28.6713 17.889C28.7843 17.616 28.9501 17.3679 29.159 17.159C29.3679 16.9501 29.616 16.7843 29.889 16.6713C30.1619 16.5582 30.4545 16.5 30.75 16.5C31.0455 16.5 31.3381 16.5582 31.611 16.6713C31.884 16.7843 32.1321 16.9501 32.341 17.159C32.5499 17.3679 32.7157 17.616 32.8287 17.889C32.9418 18.1619 33 18.4545 33 18.75C33 19.3467 32.7629 19.919 32.341 20.341C31.919 20.7629 31.3467 21 30.75 21C30.1533 21 29.581 20.7629 29.159 20.341C28.7371 19.919 28.5 19.3467 28.5 18.75ZM30.75 18C30.5511 18 30.3603 18.079 30.2197 18.2197C30.079 18.3603 30 18.5511 30 18.75C30 18.9489 30.079 19.1397 30.2197 19.2803C30.3603 19.421 30.5511 19.5 30.75 19.5C30.9489 19.5 31.1397 19.421 31.2803 19.2803C31.421 19.1397 31.5 18.9489 31.5 18.75C31.5 18.5511 31.421 18.3603 31.2803 18.2197C31.1397 18.079 30.9489 18 30.75 18ZM17.25 16.5C16.6533 16.5 16.081 16.737 15.659 17.159C15.2371 17.581 15 18.1533 15 18.75C15 19.3467 15.2371 19.919 15.659 20.341C16.081 20.7629 16.6533 21 17.25 21C17.8467 21 18.419 20.7629 18.841 20.341C19.2629 19.919 19.5 19.3467 19.5 18.75C19.5 18.1533 19.2629 17.581 18.841 17.159C18.419 16.737 17.8467 16.5 17.25 16.5ZM16.5 18.75C16.5 18.5511 16.579 18.3603 16.7197 18.2197C16.8603 18.079 17.0511 18 17.25 18C17.4489 18 17.6397 18.079 17.7803 18.2197C17.921 18.3603 18 18.5511 18 18.75C18 18.9489 17.921 19.1397 17.7803 19.2803C17.6397 19.421 17.4489 19.5 17.25 19.5C17.0511 19.5 16.8603 19.421 16.7197 19.2803C16.579 19.1397 16.5 18.9489 16.5 18.75ZM18.402 22.5C18.138 22.9558 17.9993 23.4733 18 24H15V27.75C14.9999 28.1231 15.0925 28.4904 15.2697 28.8188C15.4468 29.1472 15.7028 29.4264 16.0146 29.6312C16.3264 29.8361 16.6843 29.9602 17.056 29.9923C17.4277 30.0245 17.8016 29.9637 18.144 29.8155C18.255 30.312 18.429 30.786 18.654 31.2285C18.0847 31.4584 17.4677 31.5449 16.8571 31.4806C16.2465 31.4163 15.6611 31.203 15.1522 30.8595C14.6433 30.5161 14.2265 30.0529 13.9384 29.5107C13.6503 28.9686 13.4998 28.3639 13.5 27.75V24C13.5 23.6022 13.658 23.2206 13.9393 22.9393C14.2206 22.658 14.6022 22.5 15 22.5H18.402ZM29.346 31.2285C29.9153 31.4584 30.5323 31.5449 31.1429 31.4806C31.7535 31.4163 32.3389 31.203 32.8478 30.8595C33.3567 30.5161 33.7735 30.0529 34.0616 29.5107C34.3497 28.9686 34.5002 28.3639 34.5 27.75V24C34.5 23.6022 34.342 23.2206 34.0607 22.9393C33.7794 22.658 33.3978 22.5 33 22.5H29.598C29.853 22.941 30 23.4525 30 24H33V27.75C33.0001 28.1231 32.9075 28.4904 32.7304 28.8188C32.5532 29.1472 32.2973 29.4264 31.9854 29.6312C31.6736 29.8361 31.3157 29.9602 30.944 29.9923C30.5723 30.0245 30.1984 29.9637 29.856 29.8155C29.7435 30.312 29.571 30.786 29.346 31.2285ZM21 22.4985C20.6022 22.4985 20.2206 22.6565 19.9393 22.9378C19.658 23.2191 19.5 23.6007 19.5 23.9985V28.5C19.5 29.6935 19.9741 30.8381 20.818 31.682C21.6619 32.5259 22.8065 33 24 33C25.1935 33 26.3381 32.5259 27.182 31.682C28.0259 30.8381 28.5 29.6935 28.5 28.5V24C28.5 23.6022 28.342 23.2206 28.0607 22.9393C27.7794 22.658 27.3978 22.5 27 22.5H21V22.4985ZM21 23.9985H27V28.5C27 29.2956 26.6839 30.0587 26.1213 30.6213C25.5587 31.1839 24.7956 31.5 24 31.5C23.2044 31.5 22.4413 31.1839 21.8787 30.6213C21.3161 30.0587 21 29.2956 21 28.5V24V23.9985Z" fill="#2B68DE"/>
</svg>
