<svg width="48" height="48" viewBox="0 0 48 48" fill="none" xmlns="http://www.w3.org/2000/svg">
<rect width="48" height="48" rx="6" fill="#EEF2FF"/>
<path d="M20.1429 15.4286C19.1199 15.4286 18.1389 15.835 17.4155 16.5583C16.6922 17.2817 16.2858 18.2628 16.2858 19.2857C16.2858 20.3087 16.6922 21.2898 17.4155 22.0131C18.1389 22.7365 19.1199 23.1429 20.1429 23.1429C21.1659 23.1429 22.147 22.7365 22.8703 22.0131C23.5937 21.2898 24.0001 20.3087 24.0001 19.2857C24.0001 18.2628 23.5937 17.2817 22.8703 16.5583C22.147 15.835 21.1659 15.4286 20.1429 15.4286ZM17.5715 19.2857C17.5715 18.948 17.638 18.6137 17.7672 18.3017C17.8965 17.9897 18.0859 17.7062 18.3247 17.4675C18.5634 17.2287 18.8469 17.0393 19.1589 16.91C19.4709 16.7808 19.8052 16.7143 20.1429 16.7143C20.4806 16.7143 20.815 16.7808 21.127 16.91C21.4389 17.0393 21.7224 17.2287 21.9612 17.4675C22.2 17.7062 22.3894 17.9897 22.5186 18.3017C22.6478 18.6137 22.7144 18.948 22.7144 19.2857C22.7144 19.9677 22.4434 20.6218 21.9612 21.104C21.479 21.5862 20.8249 21.8572 20.1429 21.8572C19.4609 21.8572 18.8069 21.5862 18.3247 21.104C17.8424 20.6218 17.5715 19.9677 17.5715 19.2857ZM29.1429 17.1429C28.749 17.1429 28.3589 17.2205 27.9949 17.3712C27.6309 17.522 27.3002 17.743 27.0216 18.0216C26.743 18.3001 26.5221 18.6308 26.3713 18.9948C26.2205 19.3588 26.1429 19.7489 26.1429 20.1429C26.1429 20.5368 26.2205 20.9269 26.3713 21.2909C26.5221 21.6549 26.743 21.9856 27.0216 22.2642C27.3002 22.5428 27.6309 22.7637 27.9949 22.9145C28.3589 23.0653 28.749 23.1429 29.1429 23.1429C29.9386 23.1429 30.7016 22.8268 31.2642 22.2642C31.8269 21.7016 32.1429 20.9385 32.1429 20.1429C32.1429 19.3472 31.8269 18.5842 31.2642 18.0216C30.7016 17.4589 29.9386 17.1429 29.1429 17.1429ZM27.4286 20.1429C27.4286 19.6882 27.6093 19.2522 27.9307 18.9307C28.2522 18.6092 28.6883 18.4286 29.1429 18.4286C29.5976 18.4286 30.0336 18.6092 30.3551 18.9307C30.6766 19.2522 30.8572 19.6882 30.8572 20.1429C30.8572 20.5975 30.6766 21.0336 30.3551 21.3551C30.0336 21.6765 29.5976 21.8572 29.1429 21.8572C28.6883 21.8572 28.2522 21.6765 27.9307 21.3551C27.6093 21.0336 27.4286 20.5975 27.4286 20.1429ZM15.6429 24.8572C15.1314 24.8572 14.6409 25.0603 14.2792 25.422C13.9175 25.7837 13.7144 26.2742 13.7144 26.7857V27.2409C13.7154 27.3102 13.7203 27.3795 13.7289 27.4483C13.7435 27.5794 13.7709 27.7594 13.8232 27.9729C13.9654 28.5356 14.218 29.0644 14.5664 29.5286C15.4355 30.6883 17.0932 31.7143 20.1429 31.7143C21.4552 31.7143 22.5104 31.524 23.3546 31.2154C23.2428 30.7898 23.175 30.3538 23.1524 29.9143C22.4358 30.2186 21.4638 30.4286 20.1429 30.4286C17.4069 30.4286 16.1718 29.526 15.5949 28.7572C15.3495 28.4301 15.1717 28.0574 15.0721 27.6609C15.0361 27.518 15.0123 27.3723 15.0009 27.2254L15.0001 27.21V26.7857C15.0001 26.6152 15.0678 26.4517 15.1884 26.3312C15.3089 26.2106 15.4724 26.1429 15.6429 26.1429H24.1329C24.4153 25.696 24.7516 25.2855 25.1341 24.9206C24.9738 24.8785 24.8087 24.8571 24.6429 24.8572H15.6429ZM26.3966 26.3126C26.4607 26.5343 26.4794 26.7666 26.4516 26.9956C26.4237 27.2247 26.3499 27.4458 26.2346 27.6456C26.1193 27.8455 25.9648 28.02 25.7804 28.1587C25.596 28.2974 25.3855 28.3975 25.1615 28.4529L24.2838 28.6697C24.1882 29.2811 24.1905 29.9037 24.2906 30.5143L25.1272 30.7157C25.3531 30.7702 25.5656 30.8699 25.7518 31.009C25.938 31.1481 26.0939 31.3236 26.2102 31.5248C26.3264 31.7261 26.4005 31.9488 26.428 32.1796C26.4555 32.4103 26.4358 32.6443 26.3701 32.8672L26.0924 33.8083C26.5364 34.2026 27.0438 34.524 27.5949 34.7512L28.3175 33.9917C28.4776 33.8233 28.6704 33.6892 28.8839 33.5975C29.0975 33.5059 29.3275 33.4586 29.5599 33.4586C29.7923 33.4586 30.0223 33.5059 30.2359 33.5975C30.4495 33.6892 30.6422 33.8233 30.8024 33.9917L31.5309 34.7589C32.0798 34.5334 32.5871 34.2176 33.0318 33.8246L32.7446 32.8303C32.6808 32.6088 32.6623 32.3766 32.6903 32.1477C32.7183 31.9189 32.7921 31.698 32.9074 31.4984C33.0228 31.2987 33.1772 31.1244 33.3614 30.9858C33.5457 30.8472 33.756 30.7472 33.9798 30.6917L34.8592 30.474C34.9547 29.8627 34.9524 29.24 34.8524 28.6294L34.0149 28.428C33.789 28.3736 33.5765 28.2738 33.3903 28.1347C33.2042 27.9956 33.0482 27.8201 32.932 27.6189C32.8157 27.4177 32.7416 27.1949 32.7141 26.9642C32.6866 26.7334 32.7063 26.4995 32.7721 26.2766L33.0498 25.3337C32.6052 24.9376 32.0973 24.6189 31.5472 24.3909L30.8246 25.152C30.6645 25.3206 30.4717 25.4548 30.2581 25.5466C30.0444 25.6383 29.8143 25.6856 29.5818 25.6856C29.3493 25.6856 29.1192 25.6383 28.9055 25.5466C28.6918 25.4548 28.4991 25.3206 28.3389 25.152L27.6112 24.3849C27.062 24.6103 26.5544 24.9261 26.1095 25.3192L26.3966 26.3134V26.3126ZM29.5715 30.8572C29.2305 30.8572 28.9035 30.7217 28.6624 30.4806C28.4212 30.2395 28.2858 29.9124 28.2858 29.5714C28.2858 29.2305 28.4212 28.9034 28.6624 28.6623C28.9035 28.4212 29.2305 28.2857 29.5715 28.2857C29.9125 28.2857 30.2395 28.4212 30.4806 28.6623C30.7218 28.9034 30.8572 29.2305 30.8572 29.5714C30.8572 29.9124 30.7218 30.2395 30.4806 30.4806C30.2395 30.7217 29.9125 30.8572 29.5715 30.8572Z" fill="#2B68DE"/>
</svg>
