<svg width="142" height="34" viewBox="0 0 142 34" fill="none" xmlns="http://www.w3.org/2000/svg">
<g clip-path="url(#clip0_1_12314)">
<path d="M98.7108 8.77163C100.13 8.77163 101.55 8.7438 102.969 8.77163C104.432 8.80816 105.093 9.44484 105.333 10.9009C105.463 11.5839 105.51 12.2801 105.472 12.9744C105.415 13.7329 105.135 14.4078 104.488 14.8218C103.938 15.1697 103.895 15.5176 104.251 16.0134C104.425 16.2674 104.517 16.5857 104.677 16.8554C105.05 17.4886 104.797 17.9826 104.048 17.9548C103.352 17.9287 102.787 17.6677 102.468 16.951C101.772 15.3854 101.191 15.1228 99.464 15.2793C98.5751 15.3611 97.6723 15.3072 96.7764 15.3159C95.543 15.3298 95.4717 15.4028 95.4456 16.6588C95.4248 17.7025 95.2578 17.8452 94.3201 17.8487C93.5895 17.8487 93.3042 17.4607 93.3599 16.8171C93.4332 15.6333 93.4431 14.4463 93.3895 13.2614C93.3895 12.8909 93.2799 12.3082 93.8818 12.3638C94.4175 12.4125 95.3117 11.7672 95.4213 12.9692C95.4648 13.4597 95.8092 13.5363 96.2284 13.5345C98.142 13.5258 100.055 13.5345 101.969 13.5258C102.947 13.5258 103.348 13.0736 103.361 12.0594C103.373 11.0452 102.943 10.4799 101.969 10.4625C100.203 10.4277 98.4342 10.4486 96.6685 10.4486C95.8562 10.4486 95.0455 10.4486 94.2332 10.4486C93.6191 10.4486 93.3251 10.1772 93.3373 9.55443C93.3495 8.93167 93.673 8.69335 94.2732 8.69857C95.75 8.71249 97.2304 8.69857 98.7038 8.69857L98.7108 8.77163Z" fill="#27273F"/>
<path d="M70.032 8.75784C71.4237 8.75784 72.8153 8.73871 74.207 8.75784C75.8039 8.78742 76.491 9.35799 76.7154 10.9271C76.8177 11.7011 76.8323 12.4842 76.7589 13.2616C76.6545 14.4793 75.9483 15.1159 74.621 15.2151C72.571 15.3647 70.5136 15.3839 68.4612 15.2725C67.0539 15.1977 66.8104 15.4117 66.8712 16.7842C66.9008 17.4522 66.6816 17.8279 65.9528 17.8401C65.2726 17.8488 64.749 17.767 64.7785 16.8764C64.8203 15.6343 64.7872 14.3888 64.7907 13.1468C64.7907 12.7501 64.836 12.197 65.3578 12.197C65.8797 12.197 66.6695 11.8717 66.8104 12.8928C66.8852 13.4146 67.1757 13.5538 67.6401 13.5521C69.578 13.5521 71.5193 13.5695 73.4572 13.5382C74.4018 13.5225 74.694 13.1224 74.694 12.0491C74.694 10.9323 74.3687 10.4922 73.4276 10.4835C70.9088 10.4609 68.3829 10.4835 65.8727 10.4678C65.4413 10.4678 64.9751 10.4957 64.7977 9.94596C64.5454 9.1736 64.876 8.72827 65.697 8.72827H70.0459L70.032 8.75784Z" fill="#27273F"/>
<path d="M59.6402 10.8437C58.619 12.8546 57.6327 14.7786 56.6655 16.713C56.3385 17.367 55.9697 17.8785 55.1156 17.8559C54.2614 17.8332 53.7239 17.4697 53.3621 16.7008C52.5549 15.0065 51.6834 13.3417 50.8641 11.6561C50.4588 10.8211 49.9247 10.2922 48.9036 10.4679C48.3243 10.5688 48.0547 10.2418 48.0338 9.67123C48.0095 9.1337 48.1504 8.83624 48.7749 8.751C50.8623 8.46919 51.6991 8.92496 52.4714 10.8628C53.1568 12.5798 54.0631 14.1836 55.0338 15.9284C55.5365 15.0047 55.994 14.1889 56.4255 13.3574C57.0395 12.1797 57.6553 11.002 58.2346 9.80517C58.6208 9.01193 59.1531 8.55791 60.0838 8.76144C60.1414 8.76935 60.1995 8.77284 60.2577 8.77187C62.0164 8.86755 62.0129 8.86755 62.0129 10.6993C62.0129 12.7259 61.9973 14.7525 62.0355 16.7878C62.0512 17.581 61.7503 17.8611 60.964 17.8576C60.1516 17.8576 59.9063 17.5097 59.9202 16.746C59.9568 15.0969 59.9394 13.4409 59.9202 11.797C59.922 11.4908 60.0507 11.1446 59.6402 10.8437Z" fill="#27273F"/>
<path d="M139.296 10.8453C138.266 12.8719 137.262 14.7854 136.319 16.7268C135.949 17.4939 135.46 17.8749 134.58 17.8557C133.699 17.8366 133.301 17.3513 132.965 16.652C132.115 14.8846 131.226 13.1346 130.37 11.3707C130.022 10.6609 129.486 10.3269 128.691 10.4591C128.147 10.5496 127.776 10.3983 127.722 9.78593C127.674 9.2397 127.759 8.86396 128.441 8.74219C130.321 8.42559 131.37 8.9492 132.061 10.7183C132.751 12.4875 133.72 14.1296 134.67 15.937L136.542 12.437C137.017 11.5464 137.49 10.654 137.968 9.76331C138.704 8.39254 140.019 8.50213 141.148 8.75263C141.496 8.82743 141.505 9.0901 141.507 9.35452C141.507 11.9639 141.507 14.561 141.507 17.1651C141.507 17.9566 140.932 17.7809 140.463 17.8157C139.894 17.8557 139.593 17.6627 139.593 17.0451C139.605 15.3682 139.593 13.6912 139.593 12.0143C139.586 11.6594 139.654 11.2732 139.296 10.8453Z" fill="#27273F"/>
<path d="M118.74 17.8296C117.583 17.8296 116.424 17.854 115.261 17.8296C113.601 17.7862 112.982 17.1547 112.954 15.4725C112.921 13.5347 112.921 11.5968 112.917 9.65893C112.917 9.21186 112.803 8.68652 113.558 8.70739C114.935 8.74392 114.949 8.73 114.949 9.72329C114.949 11.2889 114.949 12.8458 114.96 14.4062C114.977 15.9196 115.177 16.111 116.666 16.1179C118.231 16.1249 119.796 16.1249 121.363 16.1179C122.544 16.1179 122.885 15.77 122.883 14.5523C122.883 12.9328 122.92 11.3115 122.857 9.69372C122.821 8.76653 123.337 8.7648 124.005 8.74044C124.701 8.71435 125 8.94223 124.985 9.67806C124.945 11.4994 124.985 13.3311 124.953 15.1455C124.927 16.9964 124.153 17.7688 122.304 17.8401C121.697 17.8627 121.086 17.8644 120.483 17.8696C119.903 17.8696 119.324 17.8696 118.743 17.8696L118.74 17.8296Z" fill="#27273F"/>
<path d="M84.9919 17.8417C83.4263 17.8417 81.8607 17.8226 80.2951 17.8417C79.5697 17.8539 79.2235 17.5895 79.2409 16.831C79.2687 15.6464 79.267 14.46 79.2409 13.2754C79.2252 12.6143 79.4879 12.3308 80.1594 12.3343C82.9972 12.3482 85.835 12.3482 88.6728 12.3343C89.2451 12.3343 89.5426 12.5552 89.5426 13.1397C89.5426 13.7624 89.2468 14.0095 88.6328 14.0095C86.5766 13.9903 84.5204 14.0199 82.4643 13.9816C81.6711 13.966 81.2623 14.2043 81.2918 15.0567C81.3231 15.9821 81.511 16.2013 82.5095 16.1996C84.884 16.1996 87.2568 16.1769 89.6313 16.1717C90.0331 16.1717 90.4558 16.1387 90.6263 16.6553C90.8629 17.3755 90.5515 17.8313 89.7565 17.8382C88.1805 17.8504 86.5871 17.8417 84.9919 17.8417Z" fill="#27273F"/>
<path d="M82.8322 22.4621C83.7298 22.4621 84.6274 22.4621 85.525 22.4621C85.8468 22.4621 86.1321 22.5421 86.1078 22.9283C86.0852 23.2641 85.8642 23.3963 85.5128 23.3928C84.1525 23.3789 82.7904 23.3928 81.4301 23.3928C81.0248 23.3928 80.5603 23.3249 80.536 23.9286C80.5133 24.614 81.0422 24.5096 81.4614 24.5113C82.5591 24.5113 83.6567 24.5026 84.7561 24.4904C85.104 24.4904 85.4241 24.5287 85.4311 24.9636C85.4398 25.4402 85.1267 25.4855 84.7353 25.4855C83.5785 25.4594 82.4199 25.4855 81.2561 25.4524C80.8073 25.4437 80.5133 25.5446 80.529 26.056C80.5447 26.5414 80.8091 26.6788 81.2683 26.6718C82.66 26.6492 84.0516 26.6579 85.4433 26.6614C85.7529 26.6614 86.1391 26.5901 86.1565 27.0667C86.1721 27.5886 85.7842 27.5242 85.4241 27.5364C83.8916 27.5921 82.3573 27.4738 80.8247 27.6373C79.7914 27.7486 79.3531 27.3346 79.3426 26.3118C79.3339 25.2419 79.3966 24.1721 79.4105 23.1023C79.4105 22.5926 79.7236 22.4691 80.1463 22.4673C81.037 22.4586 81.9346 22.4604 82.8322 22.4621Z" fill="#27273F"/>
<path d="M120.984 27.5346C120.231 27.5346 119.479 27.5346 118.722 27.5346C118.432 27.5346 118.075 27.5955 118.049 27.1971C118.023 26.7727 118.382 26.7135 118.717 26.7118C120.078 26.7118 121.438 26.7118 122.797 26.7013C123.027 26.7167 123.258 26.6848 123.475 26.6074C123.788 26.4613 123.781 26.1395 123.718 25.849C123.64 25.4837 123.341 25.4645 123.04 25.4628C121.854 25.4628 120.667 25.4732 119.481 25.4384C118.479 25.4106 117.957 25.0001 117.832 24.2329C117.675 23.2675 118.18 22.5508 119.161 22.5073C120.777 22.4359 122.398 22.4516 124.016 22.4272C124.322 22.4272 124.538 22.5386 124.538 22.8639C124.527 23.264 124.26 23.3857 123.887 23.3857C122.496 23.3857 121.104 23.3979 119.712 23.3857C119.131 23.377 118.903 23.6223 119.016 24.1738C119.11 24.6504 119.507 24.5756 119.846 24.5773C121.003 24.5773 122.16 24.5547 123.315 24.5913C124.47 24.6278 124.954 25.0975 124.948 26.0577C124.943 27.0179 124.446 27.4981 123.318 27.5502C122.539 27.5868 121.753 27.5502 120.977 27.5502L120.984 27.5346Z" fill="#27273F"/>
<path d="M108.033 13.3208C108.033 12.0752 108.063 10.8297 108.023 9.58768C108 8.86576 108.31 8.70572 108.965 8.74051C109.574 8.77356 110.134 8.68484 110.124 9.58593C110.096 12.0434 110.096 14.5019 110.124 16.9617C110.124 17.7479 109.71 17.8419 109.07 17.8314C108.43 17.821 108 17.7723 108.026 16.9617C108.073 15.744 108.038 14.5263 108.038 13.3086L108.033 13.3208Z" fill="#27273F"/>
<path d="M84.9487 10.3653C83.3831 10.3653 81.8175 10.3444 80.2519 10.3757C79.6031 10.3896 79.2691 10.1722 79.2534 9.50591C79.236 8.78747 79.6953 8.75442 80.2363 8.75616C83.3675 8.7666 86.4946 8.7666 89.6177 8.75616C90.1396 8.75616 90.611 8.75616 90.5988 9.50069C90.5884 10.1756 90.2944 10.3931 89.6334 10.3705C88.0765 10.3374 86.5126 10.3653 84.9487 10.3653Z" fill="#27273F"/>
<path d="M43.2068 13.2285C43.2068 11.9865 43.2224 10.7444 43.1981 9.50411C43.1876 8.94745 43.3894 8.69521 43.9582 8.75261C44.4679 8.80306 45.1238 8.56648 45.1203 9.47453C45.1064 11.9865 45.1064 14.4978 45.1203 17.0086C45.1203 17.8262 44.6175 17.8175 44.0243 17.8401C43.3494 17.8662 43.1841 17.5583 43.1981 16.9512C43.2276 15.7109 43.2068 14.4688 43.2068 13.2285Z" fill="#27273F"/>
<path d="M102.081 22.4638H105.289C105.604 22.4638 105.865 22.5073 105.849 22.9266C105.834 23.3458 105.602 23.3893 105.273 23.398C104.725 23.4136 104.179 23.4554 103.631 23.4832C102.836 23.5267 102.52 24.0051 102.514 24.7392C102.514 25.435 102.501 26.1308 102.514 26.8267C102.514 27.2163 102.431 27.5329 101.97 27.5451C101.467 27.559 101.347 27.2302 101.351 26.8023C101.351 25.9656 101.34 25.1271 101.365 24.2904C101.384 23.6328 101.132 23.3354 100.443 23.3858C99.8391 23.431 99.225 23.398 98.6231 23.3858C98.303 23.3858 98.0317 23.2814 98.0264 22.9126C98.0212 22.5439 98.3117 22.4395 98.6214 22.4377C99.7782 22.4377 100.933 22.4377 102.088 22.4377L102.081 22.4638Z" fill="#27273F"/>
<path d="M63.0578 27.5346C62.3916 27.5346 61.7253 27.5172 61.0591 27.5346C60.2641 27.5607 59.9127 27.1084 59.7596 26.4108C59.6883 26.0908 59.7509 25.835 60.0902 25.715C60.4294 25.595 60.7703 25.6733 60.8503 26.049C60.9825 26.6666 61.4 26.7013 61.8941 26.6944C62.7047 26.6839 63.5171 26.6735 64.3295 26.6944C65.0253 26.717 65.3401 26.4213 65.3227 25.7168C65.3019 24.8783 65.3227 24.0381 65.3227 23.1979C65.3227 22.7734 65.4045 22.4446 65.9281 22.4551C66.4517 22.4655 66.523 22.7926 66.5161 23.2187C66.4987 24.1738 66.5161 25.1323 66.49 26.0855C66.4517 27.1484 66.0221 27.5433 64.9766 27.5415C64.6582 27.5415 64.3382 27.5311 64.0198 27.5294C63.7015 27.5276 63.3779 27.5346 63.0578 27.5346Z" fill="#27273F"/>
<path d="M48.0082 15.1455C48.0082 14.5402 48.0326 13.9279 48.0082 13.3277C47.9699 12.5553 48.4013 12.2944 49.0746 12.2979C49.7478 12.3014 50.1635 12.5327 50.134 13.3242C50.0905 14.5071 50.0957 15.6935 50.134 16.8764C50.1566 17.6627 49.7773 17.8645 49.0676 17.8558C48.3579 17.8471 47.9525 17.7027 48.0413 16.8781C48.0754 16.2989 48.0789 15.7182 48.0517 15.1386L48.0082 15.1455Z" fill="#27273F"/>
<path d="M129.791 15.2082V17.106C129.791 17.9862 129.135 17.7931 128.617 17.8279C128.098 17.8627 127.705 17.7931 127.712 17.1165C127.728 15.7944 127.704 14.4706 127.691 13.1468C127.691 12.4214 128.17 12.31 128.735 12.3118C129.3 12.3135 129.793 12.4162 129.796 13.1363C129.796 13.8322 129.796 14.5175 129.796 15.2082H129.791Z" fill="#27273F"/>
<path d="M29.6496 4.32717C28.6407 5.19695 27.663 6.09282 26.6019 7.04436C27.9153 7.3627 27.9101 7.35748 27.2316 8.40469C24.8484 12.0786 21.4911 14.5401 17.5162 16.2414C13.6787 17.8853 9.61163 18.6298 5.51323 19.2839C3.93719 19.5361 3.44141 19.5327 3.26919 18.635C2.66963 18.6594 2.06948 18.6907 1.46875 18.729V19.6388C1.97844 21.9002 2.68644 24.0868 3.93892 26.056C5.52538 28.5743 7.82694 30.5621 10.5493 31.7652C11.0102 31.2973 11.4451 30.8015 11.5808 30.1892C11.5922 30.1406 11.6074 30.0929 11.626 30.0466L11.4782 29.9665C11.713 29.7665 11.88 29.6186 12.0609 29.4725C16.3559 26.2334 19.9237 22.3073 22.9645 17.8923C25.0205 14.8749 26.8515 11.7102 28.4424 8.42383C28.5867 8.12984 28.6372 7.32791 29.3208 8.04287C29.5226 8.25335 29.6861 7.99764 29.7209 7.78541C29.8949 6.73124 30.0689 5.67533 30.1889 4.61419C30.2376 4.21757 29.9645 4.05927 29.6496 4.32717Z" fill="#27273F"/>
<path d="M31.2204 10.5774C32.6398 13.9009 32.8415 17.6186 31.79 21.0761C30.7384 24.5337 28.501 27.5096 25.4716 29.4801C22.4421 31.4506 18.8147 32.2894 15.2277 31.8489C11.6407 31.4084 8.32399 29.7168 5.8613 27.0719C3.3986 24.427 1.94773 20.9982 1.76401 17.3889C1.58028 13.7796 2.67549 10.2212 4.85688 7.33988C7.03827 4.45855 10.166 2.43895 13.6898 1.6365C17.2135 0.834057 20.9073 1.30019 24.1213 2.95287" stroke="#27273F" stroke-width="2.43538" stroke-miterlimit="10" stroke-linecap="round"/>
</g>
<defs>
<clipPath id="clip0_1_12314">
<rect width="141" height="33.1717" fill="white" transform="translate(0.501953 0.0356445)"/>
</clipPath>
</defs>
</svg>
