<svg width="24" height="25" viewBox="0 0 24 25" fill="none" xmlns="http://www.w3.org/2000/svg">
<path d="M15.2475 16.61L16.9275 14.93C17.1538 14.7065 17.44 14.5536 17.7516 14.4897C18.0631 14.4257 18.3865 14.4537 18.6825 14.57L20.73 15.3875C21.0291 15.5089 21.2856 15.7161 21.4671 15.9831C21.6486 16.25 21.747 16.5647 21.75 16.8875V20.6375C21.7482 20.8571 21.7021 21.074 21.6143 21.2753C21.5265 21.4766 21.3989 21.658 21.2391 21.8087C21.0793 21.9593 20.8907 22.0761 20.6847 22.1519C20.4786 22.2278 20.2593 22.2611 20.04 22.25C5.69248 21.3575 2.79748 9.2075 2.24998 4.5575C2.22456 4.32915 2.24778 4.09801 2.31811 3.87928C2.38844 3.66055 2.50429 3.45919 2.65803 3.28845C2.81177 3.11771 2.99992 2.98145 3.2101 2.88865C3.42028 2.79584 3.64772 2.74859 3.87748 2.75H7.49998C7.82324 2.75096 8.13881 2.8486 8.40612 3.03037C8.67344 3.21214 8.88025 3.46973 8.99998 3.77L9.81748 5.8175C9.93767 6.1123 9.96833 6.43598 9.90564 6.74811C9.84295 7.06024 9.68968 7.34697 9.46498 7.5725L7.78498 9.2525C7.78498 9.2525 8.75248 15.8 15.2475 16.61Z" fill="#2C3957"/>
</svg>
