<svg width="25" height="25" viewBox="0 0 25 25" fill="none" xmlns="http://www.w3.org/2000/svg">
<path d="M12.5 2.5C8.63 2.5 5.5 5.63 5.5 9.5C5.5 14.75 12.5 22.5 12.5 22.5C12.5 22.5 19.5 14.75 19.5 9.5C19.5 5.63 16.37 2.5 12.5 2.5ZM12.5 12C11.837 12 11.2011 11.7366 10.7322 11.2678C10.2634 10.7989 10 10.163 10 9.5C10 8.83696 10.2634 8.20107 10.7322 7.73223C11.2011 7.26339 11.837 7 12.5 7C13.163 7 13.7989 7.26339 14.2678 7.73223C14.7366 8.20107 15 8.83696 15 9.5C15 10.163 14.7366 10.7989 14.2678 11.2678C13.7989 11.7366 13.163 12 12.5 12Z" fill="#2C3957"/>
</svg>
