<svg width="84" height="84" viewBox="0 0 84 84" fill="none" xmlns="http://www.w3.org/2000/svg">
<circle cx="41.9998" cy="42" r="37.7703" stroke="white" stroke-width="7"/>
<path d="M31.6914 56.7419C31.3656 56.7419 31.0531 56.6125 30.8227 56.3821C30.5923 56.1517 30.4629 55.8392 30.4629 55.5134V28.4863C30.4629 28.2729 30.5186 28.0631 30.6244 27.8777C30.7302 27.6923 30.8825 27.5376 31.0663 27.429C31.25 27.3204 31.459 27.2615 31.6724 27.2582C31.8859 27.2549 32.0965 27.3073 32.2835 27.4102L56.8536 40.9237C57.0462 41.0297 57.2068 41.1856 57.3187 41.3748C57.4305 41.5641 57.4896 41.78 57.4896 41.9999C57.4896 42.2197 57.4305 42.4356 57.3187 42.6249C57.2068 42.8142 57.0462 42.97 56.8536 43.076L32.2835 56.5896C32.1021 56.6894 31.8985 56.7418 31.6914 56.7419Z" fill="white"/>
</svg>
