<svg width="16" height="17" viewBox="0 0 16 17" fill="none" xmlns="http://www.w3.org/2000/svg">
<g clip-path="url(#clip0_132_21606)">
<path d="M16 8.29883C16 10.4206 15.1571 12.4554 13.6569 13.9557C12.1566 15.456 10.1217 16.2988 8 16.2988C5.87827 16.2988 3.84344 15.456 2.34315 13.9557C0.842855 12.4554 0 10.4206 0 8.29883C0 6.1771 0.842855 4.14226 2.34315 2.64197C3.84344 1.14168 5.87827 0.298828 8 0.298828C10.1217 0.298828 12.1566 1.14168 13.6569 2.64197C15.1571 4.14226 16 6.1771 16 8.29883ZM5.496 6.33183H6.321C6.459 6.33183 6.569 6.21883 6.587 6.08183C6.677 5.42583 7.127 4.94783 7.929 4.94783C8.615 4.94783 9.243 5.29083 9.243 6.11583C9.243 6.75083 8.869 7.04283 8.278 7.48683C7.605 7.97583 7.072 8.54683 7.11 9.47383L7.113 9.69083C7.11405 9.75644 7.14085 9.819 7.18762 9.86502C7.23439 9.91105 7.29738 9.93684 7.363 9.93683H8.174C8.2403 9.93683 8.30389 9.91049 8.35078 9.8636C8.39766 9.81672 8.424 9.75313 8.424 9.68683V9.58183C8.424 8.86383 8.697 8.65483 9.434 8.09583C10.043 7.63283 10.678 7.11883 10.678 6.03983C10.678 4.52883 9.402 3.79883 8.005 3.79883C6.738 3.79883 5.35 4.38883 5.255 6.08483C5.25363 6.11712 5.25888 6.14935 5.27043 6.17954C5.28198 6.20973 5.29958 6.23724 5.32216 6.26038C5.34473 6.28351 5.3718 6.30178 5.40169 6.31407C5.43159 6.32636 5.46368 6.3324 5.496 6.33183ZM7.821 12.7748C8.431 12.7748 8.85 12.3808 8.85 11.8478C8.85 11.2958 8.43 10.9078 7.821 10.9078C7.237 10.9078 6.812 11.2958 6.812 11.8478C6.812 12.3808 7.237 12.7748 7.822 12.7748H7.821Z" fill="#95A2BF"/>
</g>
<defs>
<clipPath id="clip0_132_21606">
<rect width="16" height="16" fill="white" transform="translate(0 0.298828)"/>
</clipPath>
</defs>
</svg>
