<svg width="25" height="25" viewBox="0 0 25 25" fill="none" xmlns="http://www.w3.org/2000/svg">
<g clip-path="url(#clip0_0_10382)">
<path d="M22.0248 12.6116C19.3998 12.5741 17.2998 10.4741 17.2998 7.81158C14.6373 7.81158 12.5373 5.71158 12.4998 3.08658C11.4498 2.93658 10.4373 3.08658 9.49982 3.57408L6.91232 4.88658C5.97482 5.37408 5.22482 6.12408 4.73732 7.06158L3.42482 9.64908C3.08732 10.3241 2.89982 11.0741 2.89982 11.8991C2.89982 12.1616 2.89982 12.4241 2.93732 12.6866L3.38732 15.5366C3.57482 16.5866 4.06232 17.5616 4.77482 18.2741L6.83732 20.3366C7.54982 21.0491 8.52482 21.5366 9.57482 21.7241L12.4623 22.1741C13.4748 22.3241 14.5248 22.1741 15.4623 21.6866L18.0498 20.3741C18.9873 19.8866 19.7373 19.1366 20.2248 18.1991L21.5373 15.6116C22.0248 14.7116 22.1748 13.6616 22.0248 12.6116ZM9.49982 16.8116C8.82482 16.8116 8.29982 16.2866 8.29982 15.6116C8.29982 14.9741 8.82482 14.4116 9.49982 14.4116C10.1373 14.4116 10.6998 14.9741 10.6998 15.6116C10.6998 16.2866 10.1373 16.8116 9.49982 16.8116ZM10.6998 10.8116C10.0248 10.8116 9.49982 10.2866 9.49982 9.61158C9.49982 8.97408 10.0248 8.41158 10.6998 8.41158C11.3373 8.41158 11.8998 8.97408 11.8998 9.61158C11.8998 10.2866 11.3373 10.8116 10.6998 10.8116ZM16.6998 15.6116C16.0248 15.6116 15.4998 15.0866 15.4998 14.4116C15.4998 13.7741 16.0248 13.2116 16.6998 13.2116C17.3373 13.2116 17.8998 13.7741 17.8998 14.4116C17.8998 15.0866 17.3373 15.6116 16.6998 15.6116Z" fill="#75788E"/>
</g>
<defs>
<clipPath id="clip0_0_10382">
<rect width="24" height="24" fill="white" transform="translate(0.5 0.311676)"/>
</clipPath>
</defs>
</svg>
