<svg width="117" height="44" viewBox="0 0 117 44" fill="none" xmlns="http://www.w3.org/2000/svg">
<path fill-rule="evenodd" clip-rule="evenodd" d="M6.09082 43.7486C2.94616 43.743 0.362051 41.1588 0.356445 38.0142V5.80519C0.362051 2.66052 2.94616 0.0764062 6.09082 0.0708008H110.918C114.063 0.0764062 116.647 2.66052 116.653 5.80519V38.0086C116.647 41.1532 114.063 43.7374 110.918 43.743H6.09082V43.7486Z" fill="#015A75"/>
<path fill-rule="evenodd" clip-rule="evenodd" d="M6.09043 0.967529C3.43905 0.973135 1.25293 3.15366 1.25293 5.80504V38.0084C1.25854 40.6598 3.43905 42.8459 6.09043 42.8459H39.7792V0.967529H6.09043ZM85.4019 30.1159L86.1194 29.107C86.6351 29.6451 87.3526 29.9478 88.0981 29.9478C88.8269 29.9478 89.18 29.6114 89.18 29.2583C89.18 28.8043 88.6026 28.6697 87.9188 28.5016C86.8986 28.2717 85.5981 27.9915 85.5981 26.5733C85.5981 25.5363 86.495 24.6786 87.958 24.6786C88.9502 24.6786 89.7686 24.9757 90.3852 25.5475L89.6453 26.5172C89.1464 26.0744 88.5017 25.8334 87.8347 25.839C87.2685 25.839 86.949 26.0912 86.949 26.4612C86.949 26.8648 87.5208 26.9937 88.1878 27.1506C89.208 27.3917 90.5197 27.7 90.5197 29.1126C90.5197 30.2505 89.7069 31.1081 88.0309 31.1081C86.8369 31.0969 85.9737 30.7045 85.4019 30.1159ZM79.7292 30.1159L80.4467 29.107C80.9624 29.6451 81.6799 29.9478 82.4254 29.9478C83.1541 29.9478 83.5073 29.6114 83.5073 29.2583C83.5073 28.8043 82.9299 28.6697 82.2517 28.5016C81.2315 28.2717 79.931 27.9915 79.931 26.5733C79.931 25.5363 80.8279 24.6786 82.2909 24.6786C83.2775 24.6786 84.1015 24.9757 84.7181 25.5475L83.9837 26.5172C83.4849 26.0744 82.8402 25.8334 82.1732 25.839C81.607 25.839 81.2875 26.0912 81.2875 26.4612C81.2875 26.8648 81.8593 26.9937 82.5263 27.1506C83.5465 27.3917 84.8582 27.7 84.8582 29.1126C84.8582 30.2505 84.0454 31.1081 82.3694 31.1081C81.1698 31.0969 80.3122 30.7045 79.7292 30.1159ZM59.0731 30.1159L59.7906 29.107C60.3063 29.6451 61.0238 29.9478 61.7694 29.9478C62.4981 29.9478 62.8512 29.6114 62.8512 29.2583C62.8512 28.8043 62.2738 28.6697 61.59 28.5016C60.5698 28.2717 59.2693 27.9915 59.2693 26.5733C59.2693 25.5363 60.1662 24.6786 61.6292 24.6786C62.6214 24.6786 63.4398 24.9757 64.0564 25.5475L63.3165 26.5172C62.8176 26.0744 62.173 25.8334 61.5059 25.839C60.9398 25.839 60.6202 26.0912 60.6202 26.4612C60.6202 26.8648 61.1864 26.9937 61.859 27.1506C62.8792 27.3917 64.1909 27.7 64.1909 29.1126C64.1909 30.2505 63.3781 31.1081 61.7021 31.1081C60.5137 31.0969 59.6561 30.7045 59.0731 30.1159ZM52.582 28.5128V24.7683H53.9385V28.4623C53.9385 29.3312 54.4486 29.9254 55.4016 29.9254C56.3545 29.9254 56.859 29.3256 56.859 28.4623V24.7683H58.2155V28.5016C58.2155 30.0487 57.3018 31.1025 55.4072 31.1025C53.5181 31.1081 52.582 30.0431 52.582 28.5128ZM72.0722 30.996L69.1069 26.9376V30.996H67.784V24.7683H69.1405L72.0273 28.6697V24.7683H73.3502V30.9904H72.0722V30.996ZM65.1607 30.996V24.7683H66.4835V30.9904H65.1607V30.996ZM74.6451 30.996V24.7683H79.0566V25.9343H75.9736V27.2515H78.9893V28.4175H75.9736V29.8245H79.051V30.9904L74.6451 30.996ZM46.3376 30.996V24.7683H49.6111C50.7995 24.7683 51.4049 25.5251 51.4049 26.3547C51.4049 27.1394 50.9172 27.6607 50.3342 27.7841C50.9957 27.885 51.5226 28.5296 51.5226 29.3088C51.5226 30.2393 50.9004 30.9904 49.712 30.9904L46.3376 30.996ZM50.1717 29.1294C50.1717 28.737 49.8914 28.4007 49.3701 28.4007H47.666V29.8469H49.3701C49.869 29.8469 50.1717 29.5722 50.1717 29.1294ZM50.054 26.5845C50.054 26.2089 49.7457 25.9062 49.3757 25.9062C49.3589 25.9062 49.3421 25.9062 49.3253 25.9062H47.666V27.2628H49.3253C49.7737 27.2628 50.054 26.9825 50.054 26.5901V26.5845ZM52.4867 17.1953C52.4867 15.2839 53.9329 13.9722 55.7996 13.9722C56.887 13.9442 57.896 14.5384 58.4005 15.4969L57.2626 16.0574C56.9823 15.5137 56.4218 15.1606 55.8052 15.1494C54.6785 15.1494 53.8545 16.0182 53.8545 17.1841C53.8545 18.3501 54.6729 19.2189 55.8052 19.2189C56.4218 19.2133 56.9879 18.8658 57.2682 18.3164L58.4005 18.8826C57.952 19.6561 57.1673 20.4073 55.7996 20.4073C53.9385 20.4129 52.4867 19.1124 52.4867 17.1953ZM58.961 17.1953C58.961 15.2839 60.4072 13.9722 62.2738 13.9722C63.3613 13.9442 64.3703 14.5384 64.8748 15.4969L63.7369 16.0574C63.451 15.5081 62.8904 15.1606 62.2738 15.1494C61.1472 15.1494 60.3232 16.0182 60.3232 17.1841C60.3232 18.3501 61.1415 19.2189 62.2738 19.2189C62.8904 19.2133 63.4566 18.8658 63.7369 18.3164L64.8748 18.8658C64.4263 19.6393 63.6416 20.3905 62.2738 20.3905C60.4128 20.4129 58.961 19.1124 58.961 17.1953ZM69.2526 20.3064L68.0306 18.1034H67.0609V20.3064H65.738V14.0843H68.6472C69.9421 14.0843 70.7381 14.9307 70.7381 16.0911C70.7381 17.1897 70.0486 17.7895 69.3816 17.9409L70.7829 20.3176L69.2526 20.3064ZM50.6313 20.3064L50.2502 19.2526H47.582L47.1896 20.3064H45.6761L48.0865 14.0843H49.7457L52.1448 20.3064H50.6313ZM97.6947 20.3064V14.0843H100.15C102.101 14.0843 103.451 15.3231 103.451 17.201C103.451 19.0788 102.095 20.3064 100.15 20.3064H97.6947ZM92.1901 20.3064V14.0843H96.6016V15.2503H93.513V16.5675H96.5231V17.7335H93.513V19.1404H96.5904V20.3064H92.1901ZM84.0734 20.3064V14.0843H85.3963V20.3064H84.0734ZM77.3077 20.3064V14.0843H79.7628C81.7135 14.0843 83.0645 15.3231 83.0645 17.201C83.0645 19.0788 81.7079 20.3064 79.7628 20.3064H77.3077ZM71.8031 20.3064V14.0843H76.2146V15.2503H73.126V16.5675H76.1417V17.7335H73.126V19.1404H76.2034V20.3064H71.8031ZM88.1318 20.3064V15.2503H86.31V14.0843H91.2764V15.2503H89.4659V20.3064H88.1318ZM102.106 17.201C102.106 16.1023 101.428 15.2503 100.155 15.2503H99.0288V19.1404H100.155C101.377 19.1404 102.095 18.2548 102.095 17.201H102.106ZM81.7192 17.201C81.7192 16.1023 81.0409 15.2503 79.7685 15.2503H78.6418V19.1404H79.7685C80.9904 19.1404 81.7079 18.2548 81.7079 17.201H81.7192ZM48.9161 15.4072L47.9463 18.0866H49.8858L48.9161 15.4072ZM69.3816 16.0855C69.3816 15.5642 68.9836 15.2446 68.451 15.2446H67.0609V16.9263H68.451C68.9836 16.9263 69.3816 16.6124 69.3816 16.0855Z" fill="white"/>
<path fill-rule="evenodd" clip-rule="evenodd" d="M14.2921 36.0523C15.1777 36.4446 15.6093 36.7025 15.7775 37.8012C16.0634 39.7182 14.2977 40.4469 12.6328 40.4469H8.73145V32.0836H12.6665C14.079 32.0836 15.3683 32.7282 15.3683 34.3034C15.3683 35.0881 14.9591 35.6599 14.2921 36.0523ZM22.106 36.0523C22.9917 36.4446 23.4233 36.7025 23.5915 37.8012C23.8774 39.7182 22.1117 40.4469 20.4468 40.4469H16.5454V32.0836H20.4805C21.893 32.0836 23.1823 32.7282 23.1823 34.3034C23.1823 35.0881 22.7731 35.6599 22.106 36.0523ZM31.4055 37.8068C31.2373 36.7081 30.8001 36.4502 29.92 36.0579C30.5871 35.6655 31.0019 35.0937 31.0019 34.3034C31.0019 32.7282 29.7126 32.0836 28.3001 32.0836H24.365V40.4525H28.2664C29.9256 40.4525 31.697 39.7238 31.4055 37.8068ZM32.4929 38.4458V38.429C32.4929 37.3695 33.3618 36.5007 34.4212 36.5007C35.4806 36.5007 36.3495 37.3695 36.3495 38.4234V38.4402C36.3495 39.4996 35.4806 40.3685 34.4212 40.3685C33.3674 40.3741 32.4985 39.5052 32.4929 38.4458ZM36.1757 38.4402V38.4234C36.1701 37.4648 35.3798 36.6745 34.4212 36.6745C33.4571 36.6745 32.6667 37.4648 32.6667 38.429V38.4458C32.6723 39.4043 33.4627 40.1947 34.4212 40.1947C35.3854 40.1947 36.1757 39.4043 36.1757 38.4402ZM33.6645 37.392H34.5501C34.7632 37.3808 34.9762 37.4592 35.1387 37.5994C35.2452 37.7003 35.3013 37.8404 35.3013 37.9805V37.9917C35.3013 38.3113 35.0883 38.5018 34.7912 38.5747L35.4022 39.3707H35.0378L34.4661 38.6252H33.9616V39.3707H33.6701L33.6645 37.392ZM12.7954 38.8662H10.5084V36.9603H12.7954C14.4714 36.9603 14.3705 38.8662 12.7954 38.8662ZM20.6094 38.8662H18.328V36.9603H20.6094C22.2854 36.9603 22.1845 38.8662 20.6094 38.8662ZM26.142 36.9603V38.8662H28.4234C29.9985 38.8662 30.0994 36.9603 28.4234 36.9603H26.142ZM34.5221 38.3617C34.7968 38.3617 34.993 38.2328 34.993 38.0086V37.9974C34.993 37.79 34.8248 37.6554 34.5389 37.6554H33.956V38.3617H34.5221ZM10.5084 33.6811H12.56C13.838 33.6811 13.8829 35.4637 12.6384 35.4637H10.5084V33.6811ZM26.1476 33.6811H28.1824C29.4604 33.6811 29.5052 35.4637 28.2608 35.4637H26.1364L26.1476 33.6811ZM18.3336 33.6811H20.3796C21.6576 33.6811 21.7025 35.4637 20.458 35.4637H18.328L18.3336 33.6811ZM12.5095 28.3391H16.3156L16.9939 30.6486H23.2159L23.8942 28.3391H27.7003L27.2014 26.6407H13.0084L12.5095 28.3391ZM17.1172 14.6562L15.273 17.2011C14.3481 18.4735 14.634 20.7325 15.8952 21.6406L19.3145 24.107C19.9031 24.533 19.9479 24.9534 19.6677 25.3963L20.1666 25.7662L21.8986 23.3671C22.9693 21.8816 22.874 19.8693 21.2877 18.709L17.8347 16.1921C17.4255 15.8894 17.3807 15.469 17.6049 15.0037L17.1172 14.6562ZM20.0769 3.42285L17.2069 7.39713C15.8616 9.25814 16.3492 12.4364 18.1878 13.793L22.9076 17.2571C23.8662 17.9578 23.9895 19.7516 23.2944 20.6653L23.6924 20.968L26.9492 16.3883C28.4122 14.3311 28.3281 11.2873 26.0299 9.62249L20.9794 5.95092C20.2731 5.44082 19.9199 4.56637 20.5085 3.73115L20.0769 3.42285Z" fill="#015A75"/>
</svg>
