<svg width="48" height="48" viewBox="0 0 48 48" fill="none" xmlns="http://www.w3.org/2000/svg">
<rect width="48" height="48" rx="6" fill="#EEF2FF"/>
<path fill-rule="evenodd" clip-rule="evenodd" d="M24.0001 32.4C28.6393 32.4 32.4001 28.6392 32.4001 24C32.4001 19.3608 28.6393 15.6 24.0001 15.6C19.3609 15.6 15.6001 19.3608 15.6001 24C15.6001 28.6392 19.3609 32.4 24.0001 32.4ZM18.0485 21.9288C18.4408 20.8013 19.1445 19.8195 20.0565 19.0866C20.3378 19.5161 20.8233 19.7999 21.3751 19.7999C22.245 19.7999 22.9501 20.505 22.9501 21.3749V21.8999C22.9501 23.0597 23.8903 23.9999 25.0501 23.9999C26.2099 23.9999 27.1501 23.0597 27.1501 21.8999C27.1501 20.9128 27.8312 20.0847 28.7491 19.86C29.715 20.9672 30.3001 22.4152 30.3001 23.9999C30.3001 24.3577 30.2703 24.7085 30.213 25.0501H29.2501C28.0903 25.0501 27.1501 25.9903 27.1501 27.1501V29.4571C26.2234 29.9931 25.1475 30.2999 24 30.2999V28.2C24 27.0402 23.0598 26.1 21.9 26.1C20.7402 26.1 19.8 25.1598 19.8 24C19.8 22.9589 19.0424 22.0947 18.0485 21.9288Z" fill="#2B68DE"/>
</svg>
