<svg width="24" height="24" viewBox="0 0 24 24" fill="none" xmlns="http://www.w3.org/2000/svg">
<path d="M5.33333 3.6665C4.44928 3.6665 3.60143 4.01769 2.97631 4.64281C2.35119 5.26794 2 6.11578 2 6.99984V7.33484L12 12.7198L22 7.3365V6.99984C22 6.11578 21.6488 5.26794 21.0237 4.64281C20.3986 4.01769 19.5507 3.6665 18.6667 3.6665H5.33333ZM22 9.22817L12.395 14.3998C12.2736 14.4652 12.1379 14.4994 12 14.4994C11.8621 14.4994 11.7264 14.4652 11.605 14.3998L2 9.22817V16.9998C2 17.8839 2.35119 18.7317 2.97631 19.3569C3.60143 19.982 4.44928 20.3332 5.33333 20.3332H18.6667C19.5507 20.3332 20.3986 19.982 21.0237 19.3569C21.6488 18.7317 22 17.8839 22 16.9998V9.22817Z" fill="#2C3957"/>
</svg>
