<svg width="17" height="16" viewBox="0 0 17 16" fill="none" xmlns="http://www.w3.org/2000/svg">
<g clip-path="url(#clip0_0_10332)">
<path d="M1.5 2C1.5 1.46957 1.71071 0.960859 2.08579 0.585786C2.46086 0.210714 2.96957 0 3.5 0L9.5 0C10.0304 0 10.5391 0.210714 10.9142 0.585786C11.2893 0.960859 11.5 1.46957 11.5 2V10C12.0304 10 12.5391 10.2107 12.9142 10.5858C13.2893 10.9609 13.5 11.4696 13.5 12V12.5C13.5 12.6326 13.5527 12.7598 13.6464 12.8536C13.7402 12.9473 13.8674 13 14 13C14.1326 13 14.2598 12.9473 14.3536 12.8536C14.4473 12.7598 14.5 12.6326 14.5 12.5V8H14C13.8674 8 13.7402 7.94732 13.6464 7.85355C13.5527 7.75979 13.5 7.63261 13.5 7.5V4.375C13.5 4.24239 13.5527 4.11521 13.6464 4.02145C13.7402 3.92768 13.8674 3.875 14 3.875H15.495C15.484 3.399 15.442 2.981 15.294 2.653C15.2148 2.46228 15.0767 2.30183 14.9 2.195C14.716 2.085 14.436 2 14 2C13.8674 2 13.7402 1.94732 13.6464 1.85355C13.5527 1.75979 13.5 1.63261 13.5 1.5C13.5 1.36739 13.5527 1.24021 13.6464 1.14645C13.7402 1.05268 13.8674 1 14 1C14.564 1 15.034 1.11 15.412 1.336C15.795 1.564 16.046 1.887 16.206 2.243C16.501 2.898 16.5 3.708 16.5 4.324V7.5C16.5 7.63261 16.4473 7.75979 16.3536 7.85355C16.2598 7.94732 16.1326 8 16 8H15.5V12.5C15.5 12.8978 15.342 13.2794 15.0607 13.5607C14.7794 13.842 14.3978 14 14 14C13.6022 14 13.2206 13.842 12.9393 13.5607C12.658 13.2794 12.5 12.8978 12.5 12.5V12C12.5 11.7348 12.3946 11.4804 12.2071 11.2929C12.0196 11.1054 11.7652 11 11.5 11V15H12C12.1326 15 12.2598 15.0527 12.3536 15.1464C12.4473 15.2402 12.5 15.3674 12.5 15.5C12.5 15.6326 12.4473 15.7598 12.3536 15.8536C12.2598 15.9473 12.1326 16 12 16H1C0.867392 16 0.740215 15.9473 0.646447 15.8536C0.552678 15.7598 0.5 15.6326 0.5 15.5C0.5 15.3674 0.552678 15.2402 0.646447 15.1464C0.740215 15.0527 0.867392 15 1 15H1.5V2ZM4 2C3.86739 2 3.74021 2.05268 3.64645 2.14645C3.55268 2.24021 3.5 2.36739 3.5 2.5V7.5C3.5 7.63261 3.55268 7.75979 3.64645 7.85355C3.74021 7.94732 3.86739 8 4 8H9C9.13261 8 9.25979 7.94732 9.35355 7.85355C9.44732 7.75979 9.5 7.63261 9.5 7.5V2.5C9.5 2.36739 9.44732 2.24021 9.35355 2.14645C9.25979 2.05268 9.13261 2 9 2H4Z" fill="#FF6D6D"/>
</g>
<defs>
<clipPath id="clip0_0_10332">
<rect width="16" height="16" fill="white" transform="translate(0.5)"/>
</clipPath>
</defs>
</svg>
