<svg width="142" height="25" viewBox="0 0 142 25" fill="none" xmlns="http://www.w3.org/2000/svg">
<rect x="0.435547" y="0.716614" width="23.718" height="23.718" fill="#11B87A"/>
<path d="M11.5896 2.88611C11.8115 2.20324 12.7776 2.20324 12.9995 2.88611L14.7907 8.39884C14.8899 8.70423 15.1745 8.91099 15.4956 8.91099L21.292 8.91099C22.01 8.91099 22.3085 9.82978 21.7277 10.2518L17.0383 13.6589C16.7785 13.8476 16.6698 14.1822 16.769 14.4875L18.5602 20.0003C18.7821 20.6831 18.0005 21.251 17.4196 20.8289L12.7302 17.4219C12.4704 17.2331 12.1187 17.2331 11.8589 17.4219L7.16949 20.8289C6.58861 21.251 5.80704 20.6831 6.02892 20.0003L7.82011 14.4875C7.91934 14.1821 7.81064 13.8476 7.55086 13.6589L2.86145 10.2518C2.28057 9.82978 2.5791 8.91099 3.29711 8.91099L9.09354 8.91099C9.41464 8.91099 9.69922 8.70423 9.79845 8.39884L11.5896 2.88611Z" fill="white"/>
<rect x="29.7822" y="0.716614" width="23.718" height="23.718" fill="#11B87A"/>
<path d="M40.9363 2.88611C41.1582 2.20324 42.1243 2.20324 42.3461 2.88611L44.1373 8.39884C44.2366 8.70423 44.5212 8.91099 44.8423 8.91099L50.6387 8.91099C51.3567 8.91099 51.6552 9.82978 51.0743 10.2518L46.3849 13.6589C46.1252 13.8476 46.0165 14.1822 46.1157 14.4875L47.9069 20.0003C48.1287 20.6831 47.3472 21.251 46.7663 20.8289L42.0769 17.4219C41.8171 17.2331 41.4654 17.2331 41.2056 17.4219L36.5162 20.8289C35.9353 21.251 35.1537 20.6831 35.3756 20.0003L37.1668 14.4875C37.266 14.1821 37.1573 13.8476 36.8975 13.6589L32.2081 10.2518C31.6273 9.82978 31.9258 8.91099 32.6438 8.91099L38.4402 8.91099C38.7613 8.91099 39.0459 8.70423 39.1451 8.39884L40.9363 2.88611Z" fill="white"/>
<rect x="59.126" y="0.716614" width="23.718" height="23.718" fill="#11B87A"/>
<path d="M70.2801 2.88611C70.502 2.20324 71.468 2.20324 71.6899 2.88611L73.4811 8.39884C73.5803 8.70423 73.8649 8.91099 74.186 8.91099L79.9824 8.91099C80.7004 8.91099 80.999 9.82978 80.4181 10.2518L75.7287 13.6589C75.4689 13.8476 75.3602 14.1822 75.4594 14.4875L77.2506 20.0003C77.4725 20.6831 76.6909 21.251 76.1101 20.8289L71.4206 17.4219C71.1609 17.2331 70.8091 17.2331 70.5493 17.4219L65.8599 20.8289C65.279 21.251 64.4975 20.6831 64.7193 20.0003L66.5105 14.4875C66.6098 14.1821 66.5011 13.8476 66.2413 13.6589L61.5519 10.2518C60.971 9.82978 61.2695 8.91099 61.9875 8.91099L67.784 8.91099C68.1051 8.91099 68.3897 8.70423 68.4889 8.39884L70.2801 2.88611Z" fill="white"/>
<rect x="88.4717" y="0.716614" width="23.718" height="23.718" fill="#11B87A"/>
<path d="M99.6258 2.88611C99.8477 2.20324 100.814 2.20324 101.036 2.88611L102.827 8.39884C102.926 8.70423 103.211 8.91099 103.532 8.91099L109.328 8.91099C110.046 8.91099 110.345 9.82978 109.764 10.2518L105.074 13.6589C104.815 13.8476 104.706 14.1822 104.805 14.4875L106.596 20.0003C106.818 20.6831 106.037 21.251 105.456 20.8289L100.766 17.4219C100.507 17.2331 100.155 17.2331 99.895 17.4219L95.2056 20.8289C94.6247 21.251 93.8432 20.6831 94.065 20.0003L95.8562 14.4875C95.9555 14.1821 95.8468 13.8476 95.587 13.6589L90.8976 10.2518C90.3167 9.82978 90.6152 8.91099 91.3332 8.91099L97.1297 8.91099C97.4508 8.91099 97.7354 8.70423 97.8346 8.39884L99.6258 2.88611Z" fill="white"/>
<rect x="117.817" y="0.716675" width="23.718" height="23.718" fill="#11B87A"/>
<path d="M128.971 2.88617C129.193 2.2033 130.159 2.20331 130.381 2.88617L132.172 8.3989C132.272 8.70429 132.556 8.91105 132.877 8.91105L138.674 8.91105C139.392 8.91105 139.69 9.82984 139.109 10.2519L134.42 13.6589C134.16 13.8477 134.052 14.1822 134.151 14.4876L135.942 20.0003C136.164 20.6832 135.382 21.251 134.801 20.829L130.112 17.4219C129.852 17.2332 129.501 17.2332 129.241 17.4219L124.551 20.829C123.97 21.251 123.189 20.6832 123.411 20.0003L125.202 14.4876C125.301 14.1822 125.192 13.8477 124.933 13.6589L120.243 10.2519C119.662 9.82984 119.961 8.91105 120.679 8.91105L126.475 8.91105C126.796 8.91105 127.081 8.70429 127.18 8.3989L128.971 2.88617Z" fill="white"/>
</svg>
