<svg width="48" height="48" viewBox="0 0 48 48" fill="none" xmlns="http://www.w3.org/2000/svg">
<rect width="48" height="48" rx="6" fill="#EEF2FF"/>
<path fill-rule="evenodd" clip-rule="evenodd" d="M28.5767 22.4344H33.5999C34.2808 22.4344 34.8385 22.9747 34.8385 23.6343V28.5532C34.8385 29.2128 34.2808 29.7531 33.5999 29.7531H28.5767C26.4997 29.7531 24.7993 28.1058 24.7993 26.0937C24.8012 24.0799 26.4979 22.4344 28.5767 22.4344ZM22.8817 15.5824L23.7038 16.335L25.4838 14.586C25.6414 14.4316 25.7392 14.3088 25.9329 14.5001L26.5595 15.1228C26.7659 15.3193 26.755 15.4351 26.5613 15.6192L24.0623 17.9033C23.6531 18.2927 23.7237 18.3155 23.309 17.9173L21.8278 16.5858C21.7409 16.4946 21.7499 16.4034 21.8459 16.3122L22.5738 15.5807C22.6807 15.4701 22.7676 15.4772 22.8817 15.5824ZM16.6977 16.656H19.9029C19.8975 16.5683 19.8938 16.4806 19.8938 16.3911C19.8956 13.9948 21.9002 12.0511 24.3756 12.0511C26.8492 12.0511 28.8556 13.9948 28.8556 16.3911C28.8556 16.4788 28.8519 16.5665 28.8483 16.6542L30.0272 16.6525C31.2314 16.6507 32.2164 17.5647 32.2164 18.7312V19.0786C32.8104 19.4593 33.2033 20.1118 33.2033 20.8486V21.6134H31.8126V21.103C31.8126 20.5539 31.3491 20.1066 30.7841 20.1066H17.9907V18.9961C17.9907 18.8488 18.1156 18.7277 18.2677 18.7277H20.6001C20.4461 18.4962 20.3158 18.2488 20.2089 17.9892H17.0074C16.609 17.9892 16.2849 18.305 16.2849 18.6891V31.4301C16.2849 31.816 16.6108 32.13 17.0074 32.13H31.0774C31.4758 32.13 31.8 31.8143 31.8 31.4301V30.6284H33.2269V31.9529H33.2233C33.2178 32.8686 32.2092 33.6071 31.2133 33.6071H16.6923C15.6022 33.6053 14.7095 32.7405 14.7095 31.6845V18.5821C14.7095 17.5226 15.604 16.656 16.6977 16.656ZM28.5405 17.9875C28.4336 18.2471 28.3033 18.4944 28.1494 18.726H31.0104C31.0901 18.726 31.168 18.7295 31.2458 18.7383V18.6874C31.2458 18.3015 30.9199 17.9875 30.5233 17.9875H28.5405ZM28.7668 23.7747H33.2233V28.4128H28.7668C27.4504 28.4128 26.3729 27.3691 26.3729 26.0937C26.3729 24.8167 27.4504 23.7747 28.7668 23.7747ZM29.8624 25.3254C30.3133 25.3254 30.6791 25.6797 30.6791 26.1165C30.6791 26.5534 30.3133 26.9077 29.8624 26.9077C29.4115 26.9077 29.0457 26.5534 29.0457 26.1165C29.0457 25.6797 29.4115 25.3254 29.8624 25.3254Z" fill="#2B68DE"/>
</svg>
