<svg width="38" height="38" viewBox="0 0 38 38" fill="none" xmlns="http://www.w3.org/2000/svg">
<path d="M26.5976 12.1892C26.4738 11.884 26.29 11.6066 26.0571 11.3737L26.0055 11.3239C25.5306 10.8759 24.8972 10.6349 24.2447 10.654C23.5921 10.673 22.9738 10.9504 22.5258 11.4253L18.4602 15.7357L9.33407 12.5601L9.14609 12.5033C8.45276 12.3346 7.71396 12.5365 7.20248 13.048C6.75571 13.4948 6.75571 14.2205 7.20248 14.6672L7.25232 14.7136C7.26937 14.7287 7.28686 14.7432 7.30478 14.7573L14.2407 20.2087L10.6556 23.9861C10.1807 24.5246 9.17477 25.687 8.95024 26.029L8.38893 26.8841C8.19256 27.1838 8.10541 27.542 8.14214 27.8984C8.17887 28.2548 8.33724 28.5877 8.5906 28.8411C8.84397 29.0945 9.17686 29.2528 9.53329 29.2896C9.88971 29.3263 10.2479 29.2391 10.5476 29.0428L11.4036 28.4823L13.4821 26.7361L17.2326 23.1778L22.7679 30.2205C22.8679 30.3479 22.9937 30.4526 23.1371 30.5278C23.2805 30.603 23.4382 30.6469 23.5998 30.6566C23.7614 30.6664 23.9233 30.6417 24.0747 30.5843C24.2261 30.5269 24.3636 30.4381 24.4781 30.3236C25.0359 29.7658 25.2257 28.9361 24.966 28.192L21.7406 18.9269L26.0047 14.9059C26.2444 14.68 26.4364 14.4083 26.5692 14.1068C26.702 13.8053 26.7729 13.4803 26.7778 13.1509C26.7827 12.8215 26.7214 12.4945 26.5976 12.1892Z" fill="#2C3957"/>
<path d="M21.7139 12.2749C26.6317 6.01559 32.9805 8.29082 25.3304 15.5536L21.7139 12.2749Z" fill="#2C3957"/>
<rect x="15.2314" y="25.1128" width="1.92251" height="5.42444" rx="0.961256" transform="rotate(48.5852 15.2314 25.1128)" fill="#2C3957"/>
<rect x="10.7607" y="21.104" width="1.92251" height="5.42444" rx="0.961256" transform="rotate(42.2662 10.7607 21.104)" fill="#2C3957"/>
<path fill-rule="evenodd" clip-rule="evenodd" d="M8.70793 26.7514C8.65097 26.7514 8.59451 26.7408 8.54145 26.7201L3.99656 24.9483C3.87409 24.9006 3.73627 24.9135 3.62481 24.9832C3.37488 25.1394 3.36204 25.4987 3.60019 25.6724L7.29327 28.3653C7.29642 28.3676 7.30074 28.3674 7.30365 28.3648C7.30664 28.3621 7.31114 28.3619 7.31429 28.3644L9.22474 29.8796C9.22495 29.8798 9.22499 29.8801 9.22485 29.8803C9.22472 29.8805 9.22475 29.8808 9.22492 29.8809L12.4776 33.1009C12.6871 33.3082 13.0398 33.2381 13.154 32.9664C13.205 32.8453 13.1957 32.7072 13.129 32.5939L10.796 28.6315C10.7102 28.4858 10.7117 28.3046 10.7997 28.1602L10.8762 28.035C11.0219 27.7962 10.9215 27.4837 10.6641 27.3744L9.28289 26.7878C9.22622 26.7638 9.16529 26.7514 9.10373 26.7514H8.70793Z" fill="#2C3957"/>
</svg>
