<svg width="48" height="48" viewBox="0 0 48 48" fill="none" xmlns="http://www.w3.org/2000/svg">
<rect width="48" height="48" rx="24" fill="#EEF2FF"/>
<path d="M24 14.25C22.7662 14.25 21.75 15.2663 21.75 16.5C21.75 17.3438 22.2247 18.0847 22.9222 18.4688L20.718 22.875L17.2725 20.4142C17.5028 20.2026 17.6864 19.9453 17.8116 19.6588C17.9369 19.3722 18.0011 19.0627 18 18.75C18 17.5163 16.9837 16.5 15.75 16.5C14.5163 16.5 13.5 17.5163 13.5 18.75C13.5 19.761 14.1945 20.6017 15.117 20.883L16.5 28.5V32.25H31.5V28.5L32.883 20.883C33.8055 20.6017 34.5 19.761 34.5 18.75C34.5 17.5163 33.4837 16.5 32.25 16.5C31.0163 16.5 30 17.5163 30 18.75C30 19.4033 30.2752 20.001 30.7267 20.4142L27.2812 22.875L25.0778 18.4688C25.4314 18.2754 25.7267 17.9908 25.9328 17.6445C26.139 17.2982 26.2485 16.903 26.25 16.5C26.25 15.2663 25.2338 14.25 24 14.25ZM24 15.75C24.4222 15.75 24.75 16.0785 24.75 16.5C24.75 16.9223 24.4215 17.25 24 17.25C23.5778 17.25 23.25 16.9215 23.25 16.5C23.25 16.0777 23.5785 15.75 24 15.75ZM15.75 18C16.1723 18 16.5 18.3285 16.5 18.75C16.5 19.1722 16.1715 19.5 15.75 19.5C15.3277 19.5 15 19.1715 15 18.75C15 18.3278 15.3285 18 15.75 18ZM32.25 18C32.6723 18 33 18.3285 33 18.75C33 19.1722 32.6715 19.5 32.25 19.5C31.8277 19.5 31.5 19.1715 31.5 18.75C31.5 18.3278 31.8285 18 32.25 18ZM24 19.6875L26.3205 24.3285L27.4455 24.6097L31.1955 21.9375L30.1403 27.75H17.8598L16.8053 21.9375L20.5552 24.6097L21.6803 24.3285L24 19.6875ZM18 29.25H30V30.75H18V29.25Z" fill="#2B68DE"/>
</svg>
