<svg width="25" height="24" viewBox="0 0 25 24" fill="none" xmlns="http://www.w3.org/2000/svg">
<path d="M8.1901 5.41012C7.4101 4.63012 7.4101 3.36012 8.1901 2.58012C8.9701 1.80012 10.2401 1.80012 11.0201 2.58012C11.8001 3.36012 11.8001 4.63012 11.0201 5.41012C10.2301 6.20012 8.9701 6.20012 8.1901 5.41012ZM6.6001 16.0001V7.00012H4.6001V16.0001C4.6001 18.7601 6.8401 21.0001 9.6001 21.0001H15.6001V19.0001H9.6001C7.9401 19.0001 6.6001 17.6601 6.6001 16.0001ZM20.6001 20.0701L15.5301 15.0001H12.1001V11.3201C13.5001 12.4701 15.7001 13.4801 17.6001 13.4801V11.3201C15.9401 11.3401 13.9901 10.4501 12.9301 9.28012L11.5301 7.73012C11.3401 7.52012 11.1001 7.35012 10.8401 7.23012C10.5501 7.09012 10.2201 7.00012 9.8801 7.00012H9.8501C8.6101 7.00012 7.6001 8.01012 7.6001 9.25012V15.0001C7.6001 16.6601 8.9401 18.0001 10.6001 18.0001H15.6701L19.1701 21.5001L20.6001 20.0701Z" fill="#2C3957"/>
</svg>
