<svg width="25" height="24" viewBox="0 0 25 24" fill="none" xmlns="http://www.w3.org/2000/svg">
<path d="M5.1001 11.999C6.48081 11.999 7.6001 10.8797 7.6001 9.49902C7.6001 8.11831 6.48081 6.99902 5.1001 6.99902C3.71939 6.99902 2.6001 8.11831 2.6001 9.49902C2.6001 10.8797 3.71939 11.999 5.1001 11.999Z" fill="#2C3957"/>
<path d="M9.6001 7.99902C10.9808 7.99902 12.1001 6.87974 12.1001 5.49902C12.1001 4.11831 10.9808 2.99902 9.6001 2.99902C8.21939 2.99902 7.1001 4.11831 7.1001 5.49902C7.1001 6.87974 8.21939 7.99902 9.6001 7.99902Z" fill="#2C3957"/>
<path d="M15.6001 7.99902C16.9808 7.99902 18.1001 6.87974 18.1001 5.49902C18.1001 4.11831 16.9808 2.99902 15.6001 2.99902C14.2194 2.99902 13.1001 4.11831 13.1001 5.49902C13.1001 6.87974 14.2194 7.99902 15.6001 7.99902Z" fill="#2C3957"/>
<path d="M20.1001 11.999C21.4808 11.999 22.6001 10.8797 22.6001 9.49902C22.6001 8.11831 21.4808 6.99902 20.1001 6.99902C18.7194 6.99902 17.6001 8.11831 17.6001 9.49902C17.6001 10.8797 18.7194 11.999 20.1001 11.999Z" fill="#2C3957"/>
<path d="M17.94 14.859C17.07 13.839 16.34 12.969 15.46 11.949C15 11.409 14.41 10.869 13.71 10.629C13.6 10.589 13.49 10.559 13.38 10.539C13.13 10.499 12.86 10.499 12.6 10.499C12.34 10.499 12.07 10.499 11.81 10.549C11.7 10.569 11.59 10.599 11.48 10.639C10.78 10.879 10.2 11.419 9.73 11.959C8.86 12.979 8.13 13.849 7.25 14.869C5.94 16.179 4.33 17.629 4.63 19.659C4.92 20.679 5.65 21.689 6.96 21.979C7.69 22.129 10.02 21.539 12.5 21.539H12.68C15.16 21.539 17.49 22.119 18.22 21.979C19.53 21.689 20.26 20.669 20.55 19.659C20.86 17.619 19.25 16.169 17.94 14.859Z" fill="#2C3957"/>
</svg>
